<?xml version="1.0" encoding="utf-8" standalone="no"?>
<!DOCTYPE svg PUBLIC "-//W3C//DTD SVG 1.1//EN"
  "http://www.w3.org/Graphics/SVG/1.1/DTD/svg11.dtd">
<svg xmlns:xlink="http://www.w3.org/1999/xlink" width="791.161975pt" height="365.041641pt" viewBox="0 0 791.161975 365.041641" xmlns="http://www.w3.org/2000/svg" version="1.1">
 <metadata>
  <rdf:RDF xmlns:dc="http://purl.org/dc/elements/1.1/" xmlns:cc="http://creativecommons.org/ns#" xmlns:rdf="http://www.w3.org/1999/02/22-rdf-syntax-ns#">
   <cc:Work>
    <dc:type rdf:resource="http://purl.org/dc/dcmitype/StillImage"/>
    <dc:date>2026-09-20T17:50:38.383234</dc:date>
    <dc:format>image/svg+xml</dc:format>
    <dc:creator>
     <cc:Agent>
      <dc:title>Matplotlib v3.11.2, https://matplotlib.org/</dc:title>
     </cc:Agent>
    </dc:creator>
   </cc:Work>
  </rdf:RDF>
 </metadata>
 <defs>
  <style type="text/css">*{stroke-linejoin: round; stroke-linecap: butt}</style>
 </defs>
 <g id="figure_1">
  <g id="patch_1">
   <path d="M 0 365.041641 
L 791.161975 365.041641 
L 791.161975 0 
L 0 0 
z
" style="fill: #ffffff"/>
  </g>
  <g id="axes_1">
   <g id="patch_2">
    <path d="M 210.173594 325.840859 
L 387.146451 325.840859 
L 387.146451 21.558281 
L 210.173594 21.558281 
z
" style="fill: #ffffff"/>
   </g>
   <g id="patch_3">
    <path d="M 210.173594 312.009833 
L 210.173594 312.009833 
L 210.173594 293.255899 
L 210.173594 293.255899 
z
" clip-path="url(#p2b252ac7a2)" style="fill: #d7191c; opacity: 0.8"/>
   </g>
   <g id="patch_4">
    <path d="M 210.173594 288.567416 
L 210.173594 288.567416 
L 210.173594 269.813482 
L 210.173594 269.813482 
z
" clip-path="url(#p2b252ac7a2)" style="fill: #d7191c; opacity: 0.8"/>
   </g>
   <g id="patch_5">
    <path d="M 210.173594 265.124998 
L 210.173594 265.124998 
L 210.173594 246.371064 
L 210.173594 246.371064 
z
" clip-path="url(#p2b252ac7a2)" style="fill: #d7191c; opacity: 0.8"/>
   </g>
   <g id="patch_6">
    <path d="M 210.173594 241.682581 
L 210.173594 241.682581 
L 210.173594 222.928647 
L 210.173594 222.928647 
z
" clip-path="url(#p2b252ac7a2)" style="fill: #d7191c; opacity: 0.8"/>
   </g>
   <g id="patch_7">
    <path d="M 210.173594 218.240163 
L 282.940867 218.240163 
L 282.940867 199.486229 
L 210.173594 199.486229 
z
" clip-path="url(#p2b252ac7a2)" style="fill: #d7191c; opacity: 0.8"/>
   </g>
   <g id="patch_8">
    <path d="M 210.173594 194.797746 
L 285.972836 194.797746 
L 285.972836 176.043812 
L 210.173594 176.043812 
z
" clip-path="url(#p2b252ac7a2)" style="fill: #d7191c; opacity: 0.8"/>
   </g>
   <g id="patch_9">
    <path d="M 210.173594 171.355329 
L 291.026119 171.355329 
L 291.026119 152.601395 
L 210.173594 152.601395 
z
" clip-path="url(#p2b252ac7a2)" style="fill: #d7191c; opacity: 0.8"/>
   </g>
   <g id="patch_10">
    <path d="M 210.173594 147.912911 
L 291.026119 147.912911 
L 291.026119 129.158977 
L 210.173594 129.158977 
z
" clip-path="url(#p2b252ac7a2)" style="fill: #d7191c; opacity: 0.8"/>
   </g>
   <g id="patch_11">
    <path d="M 210.173594 124.470494 
L 301.132685 124.470494 
L 301.132685 105.71656 
L 210.173594 105.71656 
z
" clip-path="url(#p2b252ac7a2)" style="fill: #d7191c; opacity: 0.8"/>
   </g>
   <g id="patch_12">
    <path d="M 210.173594 101.028076 
L 319.324503 101.028076 
L 319.324503 82.274142 
L 210.173594 82.274142 
z
" clip-path="url(#p2b252ac7a2)" style="fill: #d7191c; opacity: 0.8"/>
   </g>
   <g id="patch_13">
    <path d="M 210.173594 77.585659 
L 331.452382 77.585659 
L 331.452382 58.831725 
L 210.173594 58.831725 
z
" clip-path="url(#p2b252ac7a2)" style="fill: #d7191c; opacity: 0.8"/>
   </g>
   <g id="patch_14">
    <path d="M 210.173594 54.143241 
L 355.70814 54.143241 
L 355.70814 35.389308 
L 210.173594 35.389308 
z
" clip-path="url(#p2b252ac7a2)" style="fill: #d7191c; opacity: 0.8"/>
   </g>
   <g id="matplotlib.axis_1">
    <g id="xtick_1">
     <g id="line2d_1">
      <defs>
       <path id="maa0d6a164a" d="M 0 0 
L 0 3.5 
" style="stroke: #000000; stroke-width: 0.8"/>
      </defs>
      <g>
       <use xlink:href="#maa0d6a164a" x="210.173594" y="325.840859" style="stroke: #000000; stroke-width: 0.8"/>
      </g>
     </g>
     <g id="text_1">
      <!-- 0.0 -->
      <g transform="translate(201.426875 341.198281) scale(0.11 -0.11)">
       <defs>
        <path id="DejaVuSans-13" d="M 2034 4250 
Q 1547 4250 1301 3770 
Q 1056 3291 1056 2328 
Q 1056 1369 1301 889 
Q 1547 409 2034 409 
Q 2525 409 2770 889 
Q 3016 1369 3016 2328 
Q 3016 3291 2770 3770 
Q 2525 4250 2034 4250 
z
M 2034 4750 
Q 2819 4750 3233 4129 
Q 3647 3509 3647 2328 
Q 3647 1150 3233 529 
Q 2819 -91 2034 -91 
Q 1250 -91 836 529 
Q 422 1150 422 2328 
Q 422 3509 836 4129 
Q 1250 4750 2034 4750 
z
" transform="scale(0.015625)"/>
        <path id="DejaVuSans-11" d="M 684 794 
L 1344 794 
L 1344 0 
L 684 0 
L 684 794 
z
" transform="scale(0.015625)"/>
       </defs>
       <use xlink:href="#DejaVuSans-13"/>
       <use xlink:href="#DejaVuSans-11" transform="translate(63.625 0)"/>
       <use xlink:href="#DejaVuSans-13" transform="translate(95.40625 0)"/>
      </g>
     </g>
    </g>
    <g id="xtick_2">
     <g id="line2d_2">
      <g>
       <use xlink:href="#maa0d6a164a" x="246.55723" y="325.840859" style="stroke: #000000; stroke-width: 0.8"/>
      </g>
     </g>
     <g id="text_2">
      <!-- 0.2 -->
      <g transform="translate(237.810512 341.198281) scale(0.11 -0.11)">
       <defs>
        <path id="DejaVuSans-15" d="M 1228 531 
L 3431 531 
L 3431 0 
L 469 0 
L 469 531 
Q 828 903 1448 1529 
Q 2069 2156 2228 2338 
Q 2531 2678 2651 2914 
Q 2772 3150 2772 3378 
Q 2772 3750 2511 3984 
Q 2250 4219 1831 4219 
Q 1534 4219 1204 4116 
Q 875 4013 500 3803 
L 500 4441 
Q 881 4594 1212 4672 
Q 1544 4750 1819 4750 
Q 2544 4750 2975 4387 
Q 3406 4025 3406 3419 
Q 3406 3131 3298 2873 
Q 3191 2616 2906 2266 
Q 2828 2175 2409 1742 
Q 1991 1309 1228 531 
z
" transform="scale(0.015625)"/>
       </defs>
       <use xlink:href="#DejaVuSans-13"/>
       <use xlink:href="#DejaVuSans-11" transform="translate(63.625 0)"/>
       <use xlink:href="#DejaVuSans-15" transform="translate(95.40625 0)"/>
      </g>
     </g>
    </g>
    <g id="xtick_3">
     <g id="line2d_3">
      <g>
       <use xlink:href="#maa0d6a164a" x="282.940867" y="325.840859" style="stroke: #000000; stroke-width: 0.8"/>
      </g>
     </g>
     <g id="text_3">
      <!-- 0.4 -->
      <g transform="translate(274.194148 341.198281) scale(0.11 -0.11)">
       <defs>
        <path id="DejaVuSans-17" d="M 2419 4116 
L 825 1625 
L 2419 1625 
L 2419 4116 
z
M 2253 4666 
L 3047 4666 
L 3047 1625 
L 3713 1625 
L 3713 1100 
L 3047 1100 
L 3047 0 
L 2419 0 
L 2419 1100 
L 313 1100 
L 313 1709 
L 2253 4666 
z
" transform="scale(0.015625)"/>
       </defs>
       <use xlink:href="#DejaVuSans-13"/>
       <use xlink:href="#DejaVuSans-11" transform="translate(63.625 0)"/>
       <use xlink:href="#DejaVuSans-17" transform="translate(95.40625 0)"/>
      </g>
     </g>
    </g>
    <g id="xtick_4">
     <g id="line2d_4">
      <g>
       <use xlink:href="#maa0d6a164a" x="319.324503" y="325.840859" style="stroke: #000000; stroke-width: 0.8"/>
      </g>
     </g>
     <g id="text_4">
      <!-- 0.6 -->
      <g transform="translate(310.577785 341.198281) scale(0.11 -0.11)">
       <defs>
        <path id="DejaVuSans-19" d="M 2113 2584 
Q 1688 2584 1439 2293 
Q 1191 2003 1191 1497 
Q 1191 994 1439 701 
Q 1688 409 2113 409 
Q 2538 409 2786 701 
Q 3034 994 3034 1497 
Q 3034 2003 2786 2293 
Q 2538 2584 2113 2584 
z
M 3366 4563 
L 3366 3988 
Q 3128 4100 2886 4159 
Q 2644 4219 2406 4219 
Q 1781 4219 1451 3797 
Q 1122 3375 1075 2522 
Q 1259 2794 1537 2939 
Q 1816 3084 2150 3084 
Q 2853 3084 3261 2657 
Q 3669 2231 3669 1497 
Q 3669 778 3244 343 
Q 2819 -91 2113 -91 
Q 1303 -91 875 529 
Q 447 1150 447 2328 
Q 447 3434 972 4092 
Q 1497 4750 2381 4750 
Q 2619 4750 2861 4703 
Q 3103 4656 3366 4563 
z
" transform="scale(0.015625)"/>
       </defs>
       <use xlink:href="#DejaVuSans-13"/>
       <use xlink:href="#DejaVuSans-11" transform="translate(63.625 0)"/>
       <use xlink:href="#DejaVuSans-19" transform="translate(95.40625 0)"/>
      </g>
     </g>
    </g>
    <g id="xtick_5">
     <g id="line2d_5">
      <g>
       <use xlink:href="#maa0d6a164a" x="355.70814" y="325.840859" style="stroke: #000000; stroke-width: 0.8"/>
      </g>
     </g>
     <g id="text_5">
      <!-- 0.8 -->
      <g transform="translate(346.961421 341.198281) scale(0.11 -0.11)">
       <defs>
        <path id="DejaVuSans-1b" d="M 2034 2216 
Q 1584 2216 1326 1975 
Q 1069 1734 1069 1313 
Q 1069 891 1326 650 
Q 1584 409 2034 409 
Q 2484 409 2743 651 
Q 3003 894 3003 1313 
Q 3003 1734 2745 1975 
Q 2488 2216 2034 2216 
z
M 1403 2484 
Q 997 2584 770 2862 
Q 544 3141 544 3541 
Q 544 4100 942 4425 
Q 1341 4750 2034 4750 
Q 2731 4750 3128 4425 
Q 3525 4100 3525 3541 
Q 3525 3141 3298 2862 
Q 3072 2584 2669 2484 
Q 3125 2378 3379 2068 
Q 3634 1759 3634 1313 
Q 3634 634 3220 271 
Q 2806 -91 2034 -91 
Q 1263 -91 848 271 
Q 434 634 434 1313 
Q 434 1759 690 2068 
Q 947 2378 1403 2484 
z
M 1172 3481 
Q 1172 3119 1398 2916 
Q 1625 2713 2034 2713 
Q 2441 2713 2670 2916 
Q 2900 3119 2900 3481 
Q 2900 3844 2670 4047 
Q 2441 4250 2034 4250 
Q 1625 4250 1398 4047 
Q 1172 3844 1172 3481 
z
" transform="scale(0.015625)"/>
       </defs>
       <use xlink:href="#DejaVuSans-13"/>
       <use xlink:href="#DejaVuSans-11" transform="translate(63.625 0)"/>
       <use xlink:href="#DejaVuSans-1b" transform="translate(95.40625 0)"/>
      </g>
     </g>
    </g>
    <g id="text_6">
     <!-- Inversion rate ± binomial s.e. -->
     <g transform="translate(224.637366 355.439297) scale(0.1 -0.1)">
      <defs>
       <path id="DejaVuSans-2c" d="M 628 4666 
L 1259 4666 
L 1259 0 
L 628 0 
L 628 4666 
z
" transform="scale(0.015625)"/>
       <path id="DejaVuSans-51" d="M 3513 2113 
L 3513 0 
L 2938 0 
L 2938 2094 
Q 2938 2591 2744 2837 
Q 2550 3084 2163 3084 
Q 1697 3084 1428 2787 
Q 1159 2491 1159 1978 
L 1159 0 
L 581 0 
L 581 3500 
L 1159 3500 
L 1159 2956 
Q 1366 3272 1645 3428 
Q 1925 3584 2291 3584 
Q 2894 3584 3203 3211 
Q 3513 2838 3513 2113 
z
" transform="scale(0.015625)"/>
       <path id="DejaVuSans-59" d="M 191 3500 
L 800 3500 
L 1894 563 
L 2988 3500 
L 3597 3500 
L 2284 0 
L 1503 0 
L 191 3500 
z
" transform="scale(0.015625)"/>
       <path id="DejaVuSans-48" d="M 3597 1894 
L 3597 1613 
L 953 1613 
Q 991 1019 1311 708 
Q 1631 397 2203 397 
Q 2534 397 2845 478 
Q 3156 559 3463 722 
L 3463 178 
Q 3153 47 2828 -22 
Q 2503 -91 2169 -91 
Q 1331 -91 842 396 
Q 353 884 353 1716 
Q 353 2575 817 3079 
Q 1281 3584 2069 3584 
Q 2775 3584 3186 3129 
Q 3597 2675 3597 1894 
z
M 3022 2063 
Q 3016 2534 2758 2815 
Q 2500 3097 2075 3097 
Q 1594 3097 1305 2825 
Q 1016 2553 972 2059 
L 3022 2063 
z
" transform="scale(0.015625)"/>
       <path id="DejaVuSans-55" d="M 2631 2963 
Q 2534 3019 2420 3045 
Q 2306 3072 2169 3072 
Q 1681 3072 1420 2755 
Q 1159 2438 1159 1844 
L 1159 0 
L 581 0 
L 581 3500 
L 1159 3500 
L 1159 2956 
Q 1341 3275 1631 3429 
Q 1922 3584 2338 3584 
Q 2397 3584 2469 3576 
Q 2541 3569 2628 3553 
L 2631 2963 
z
" transform="scale(0.015625)"/>
       <path id="DejaVuSans-56" d="M 2834 3397 
L 2834 2853 
Q 2591 2978 2328 3040 
Q 2066 3103 1784 3103 
Q 1356 3103 1142 2972 
Q 928 2841 928 2578 
Q 928 2378 1081 2264 
Q 1234 2150 1697 2047 
L 1894 2003 
Q 2506 1872 2764 1633 
Q 3022 1394 3022 966 
Q 3022 478 2636 193 
Q 2250 -91 1575 -91 
Q 1294 -91 989 -36 
Q 684 19 347 128 
L 347 722 
Q 666 556 975 473 
Q 1284 391 1588 391 
Q 1994 391 2212 530 
Q 2431 669 2431 922 
Q 2431 1156 2273 1281 
Q 2116 1406 1581 1522 
L 1381 1569 
Q 847 1681 609 1914 
Q 372 2147 372 2553 
Q 372 3047 722 3315 
Q 1072 3584 1716 3584 
Q 2034 3584 2315 3537 
Q 2597 3491 2834 3397 
z
" transform="scale(0.015625)"/>
       <path id="DejaVuSans-4c" d="M 603 3500 
L 1178 3500 
L 1178 0 
L 603 0 
L 603 3500 
z
M 603 4863 
L 1178 4863 
L 1178 4134 
L 603 4134 
L 603 4863 
z
" transform="scale(0.015625)"/>
       <path id="DejaVuSans-52" d="M 1959 3097 
Q 1497 3097 1228 2736 
Q 959 2375 959 1747 
Q 959 1119 1226 758 
Q 1494 397 1959 397 
Q 2419 397 2687 759 
Q 2956 1122 2956 1747 
Q 2956 2369 2687 2733 
Q 2419 3097 1959 3097 
z
M 1959 3584 
Q 2709 3584 3137 3096 
Q 3566 2609 3566 1747 
Q 3566 888 3137 398 
Q 2709 -91 1959 -91 
Q 1206 -91 779 398 
Q 353 888 353 1747 
Q 353 2609 779 3096 
Q 1206 3584 1959 3584 
z
" transform="scale(0.015625)"/>
       <path id="DejaVuSans-3" transform="scale(0.015625)"/>
       <path id="DejaVuSans-44" d="M 2194 1759 
Q 1497 1759 1228 1600 
Q 959 1441 959 1056 
Q 959 750 1161 570 
Q 1363 391 1709 391 
Q 2188 391 2477 730 
Q 2766 1069 2766 1631 
L 2766 1759 
L 2194 1759 
z
M 3341 1997 
L 3341 0 
L 2766 0 
L 2766 531 
Q 2569 213 2275 61 
Q 1981 -91 1556 -91 
Q 1019 -91 701 211 
Q 384 513 384 1019 
Q 384 1609 779 1909 
Q 1175 2209 1959 2209 
L 2766 2209 
L 2766 2266 
Q 2766 2663 2505 2880 
Q 2244 3097 1772 3097 
Q 1472 3097 1187 3025 
Q 903 2953 641 2809 
L 641 3341 
Q 956 3463 1253 3523 
Q 1550 3584 1831 3584 
Q 2591 3584 2966 3190 
Q 3341 2797 3341 1997 
z
" transform="scale(0.015625)"/>
       <path id="DejaVuSans-57" d="M 1172 4494 
L 1172 3500 
L 2356 3500 
L 2356 3053 
L 1172 3053 
L 1172 1153 
Q 1172 725 1289 603 
Q 1406 481 1766 481 
L 2356 481 
L 2356 0 
L 1766 0 
Q 1100 0 847 248 
Q 594 497 594 1153 
L 594 3053 
L 172 3053 
L 172 3500 
L 594 3500 
L 594 4494 
L 1172 4494 
z
" transform="scale(0.015625)"/>
       <path id="DejaVuSans-73" d="M 2944 4013 
L 2944 2803 
L 4684 2803 
L 4684 2272 
L 2944 2272 
L 2944 1063 
L 2419 1063 
L 2419 2272 
L 678 2272 
L 678 2803 
L 2419 2803 
L 2419 4013 
L 2944 4013 
z
M 678 531 
L 4684 531 
L 4684 0 
L 678 0 
L 678 531 
z
" transform="scale(0.015625)"/>
       <path id="DejaVuSans-45" d="M 3116 1747 
Q 3116 2381 2855 2742 
Q 2594 3103 2138 3103 
Q 1681 3103 1420 2742 
Q 1159 2381 1159 1747 
Q 1159 1113 1420 752 
Q 1681 391 2138 391 
Q 2594 391 2855 752 
Q 3116 1113 3116 1747 
z
M 1159 2969 
Q 1341 3281 1617 3432 
Q 1894 3584 2278 3584 
Q 2916 3584 3314 3078 
Q 3713 2572 3713 1747 
Q 3713 922 3314 415 
Q 2916 -91 2278 -91 
Q 1894 -91 1617 61 
Q 1341 213 1159 525 
L 1159 0 
L 581 0 
L 581 4863 
L 1159 4863 
L 1159 2969 
z
" transform="scale(0.015625)"/>
       <path id="DejaVuSans-50" d="M 3328 2828 
Q 3544 3216 3844 3400 
Q 4144 3584 4550 3584 
Q 5097 3584 5394 3201 
Q 5691 2819 5691 2113 
L 5691 0 
L 5113 0 
L 5113 2094 
Q 5113 2597 4934 2840 
Q 4756 3084 4391 3084 
Q 3944 3084 3684 2787 
Q 3425 2491 3425 1978 
L 3425 0 
L 2847 0 
L 2847 2094 
Q 2847 2600 2669 2842 
Q 2491 3084 2119 3084 
Q 1678 3084 1418 2786 
Q 1159 2488 1159 1978 
L 1159 0 
L 581 0 
L 581 3500 
L 1159 3500 
L 1159 2956 
Q 1356 3278 1631 3431 
Q 1906 3584 2284 3584 
Q 2666 3584 2933 3390 
Q 3200 3197 3328 2828 
z
" transform="scale(0.015625)"/>
       <path id="DejaVuSans-4f" d="M 603 4863 
L 1178 4863 
L 1178 0 
L 603 0 
L 603 4863 
z
" transform="scale(0.015625)"/>
      </defs>
      <use xlink:href="#DejaVuSans-2c"/>
      <use xlink:href="#DejaVuSans-51" transform="translate(29.5 0)"/>
      <use xlink:href="#DejaVuSans-59" transform="translate(92.875 0)"/>
      <use xlink:href="#DejaVuSans-48" transform="translate(152.0625 0)"/>
      <use xlink:href="#DejaVuSans-55" transform="translate(213.59375 0)"/>
      <use xlink:href="#DejaVuSans-56" transform="translate(254.703125 0)"/>
      <use xlink:href="#DejaVuSans-4c" transform="translate(306.796875 0)"/>
      <use xlink:href="#DejaVuSans-52" transform="translate(334.578125 0)"/>
      <use xlink:href="#DejaVuSans-51" transform="translate(395.765625 0)"/>
      <use xlink:href="#DejaVuSans-3" transform="translate(459.140625 0)"/>
      <use xlink:href="#DejaVuSans-55" transform="translate(490.921875 0)"/>
      <use xlink:href="#DejaVuSans-44" transform="translate(532.03125 0)"/>
      <use xlink:href="#DejaVuSans-57" transform="translate(593.3125 0)"/>
      <use xlink:href="#DejaVuSans-48" transform="translate(632.515625 0)"/>
      <use xlink:href="#DejaVuSans-3" transform="translate(694.046875 0)"/>
      <use xlink:href="#DejaVuSans-73" transform="translate(725.828125 0)"/>
      <use xlink:href="#DejaVuSans-3" transform="translate(809.625 0)"/>
      <use xlink:href="#DejaVuSans-45" transform="translate(841.40625 0)"/>
      <use xlink:href="#DejaVuSans-4c" transform="translate(904.890625 0)"/>
      <use xlink:href="#DejaVuSans-51" transform="translate(932.671875 0)"/>
      <use xlink:href="#DejaVuSans-52" transform="translate(996.046875 0)"/>
      <use xlink:href="#DejaVuSans-50" transform="translate(1057.234375 0)"/>
      <use xlink:href="#DejaVuSans-4c" transform="translate(1154.640625 0)"/>
      <use xlink:href="#DejaVuSans-44" transform="translate(1182.421875 0)"/>
      <use xlink:href="#DejaVuSans-4f" transform="translate(1243.703125 0)"/>
      <use xlink:href="#DejaVuSans-3" transform="translate(1271.484375 0)"/>
      <use xlink:href="#DejaVuSans-56" transform="translate(1303.265625 0)"/>
      <use xlink:href="#DejaVuSans-11" transform="translate(1355.359375 0)"/>
      <use xlink:href="#DejaVuSans-48" transform="translate(1387.140625 0)"/>
      <use xlink:href="#DejaVuSans-11" transform="translate(1448.671875 0)"/>
     </g>
    </g>
   </g>
   <g id="matplotlib.axis_2">
    <g id="ytick_1">
     <g id="line2d_6">
      <defs>
       <path id="m98b98efbb1" d="M 0 0 
L -3.5 0 
" style="stroke: #000000; stroke-width: 0.8"/>
      </defs>
      <g>
       <use xlink:href="#m98b98efbb1" x="210.173594" y="302.632866" style="stroke: #000000; stroke-width: 0.8"/>
      </g>
     </g>
     <g id="text_7">
      <!-- Renewal Term -->
      <g transform="translate(126.56375 306.812007) scale(0.11 -0.11)">
       <defs>
        <path id="DejaVuSans-35" d="M 2841 2188 
Q 3044 2119 3236 1894 
Q 3428 1669 3622 1275 
L 4263 0 
L 3584 0 
L 2988 1197 
Q 2756 1666 2539 1819 
Q 2322 1972 1947 1972 
L 1259 1972 
L 1259 0 
L 628 0 
L 628 4666 
L 2053 4666 
Q 2853 4666 3247 4331 
Q 3641 3997 3641 3322 
Q 3641 2881 3436 2590 
Q 3231 2300 2841 2188 
z
M 1259 4147 
L 1259 2491 
L 2053 2491 
Q 2509 2491 2742 2702 
Q 2975 2913 2975 3322 
Q 2975 3731 2742 3939 
Q 2509 4147 2053 4147 
L 1259 4147 
z
" transform="scale(0.015625)"/>
        <path id="DejaVuSans-5a" d="M 269 3500 
L 844 3500 
L 1563 769 
L 2278 3500 
L 2956 3500 
L 3675 769 
L 4391 3500 
L 4966 3500 
L 4050 0 
L 3372 0 
L 2619 2869 
L 1863 0 
L 1184 0 
L 269 3500 
z
" transform="scale(0.015625)"/>
        <path id="DejaVuSans-37" d="M -19 4666 
L 3928 4666 
L 3928 4134 
L 2272 4134 
L 2272 0 
L 1638 0 
L 1638 4134 
L -19 4134 
L -19 4666 
z
" transform="scale(0.015625)"/>
       </defs>
       <use xlink:href="#DejaVuSans-35"/>
       <use xlink:href="#DejaVuSans-48" transform="translate(65 0)"/>
       <use xlink:href="#DejaVuSans-51" transform="translate(126.53125 0)"/>
       <use xlink:href="#DejaVuSans-48" transform="translate(189.90625 0)"/>
       <use xlink:href="#DejaVuSans-5a" transform="translate(251.4375 0)"/>
       <use xlink:href="#DejaVuSans-44" transform="translate(333.21875 0)"/>
       <use xlink:href="#DejaVuSans-4f" transform="translate(394.5 0)"/>
       <use xlink:href="#DejaVuSans-3" transform="translate(422.28125 0)"/>
       <use xlink:href="#DejaVuSans-37" transform="translate(454.0625 0)"/>
       <use xlink:href="#DejaVuSans-48" transform="translate(498.15625 0)"/>
       <use xlink:href="#DejaVuSans-55" transform="translate(559.6875 0)"/>
       <use xlink:href="#DejaVuSans-50" transform="translate(599.046875 0)"/>
      </g>
     </g>
    </g>
    <g id="ytick_2">
     <g id="line2d_7">
      <g>
       <use xlink:href="#m98b98efbb1" x="210.173594" y="279.190449" style="stroke: #000000; stroke-width: 0.8"/>
      </g>
     </g>
     <g id="text_8">
      <!-- Document Name -->
      <g transform="translate(110.237344 283.36916) scale(0.11 -0.11)">
       <defs>
        <path id="DejaVuSans-27" d="M 1259 4147 
L 1259 519 
L 2022 519 
Q 2988 519 3436 956 
Q 3884 1394 3884 2338 
Q 3884 3275 3436 3711 
Q 2988 4147 2022 4147 
L 1259 4147 
z
M 628 4666 
L 1925 4666 
Q 3281 4666 3915 4102 
Q 4550 3538 4550 2338 
Q 4550 1131 3912 565 
Q 3275 0 1925 0 
L 628 0 
L 628 4666 
z
" transform="scale(0.015625)"/>
        <path id="DejaVuSans-46" d="M 3122 3366 
L 3122 2828 
Q 2878 2963 2633 3030 
Q 2388 3097 2138 3097 
Q 1578 3097 1268 2742 
Q 959 2388 959 1747 
Q 959 1106 1268 751 
Q 1578 397 2138 397 
Q 2388 397 2633 464 
Q 2878 531 3122 666 
L 3122 134 
Q 2881 22 2623 -34 
Q 2366 -91 2075 -91 
Q 1284 -91 818 406 
Q 353 903 353 1747 
Q 353 2603 823 3093 
Q 1294 3584 2113 3584 
Q 2378 3584 2631 3529 
Q 2884 3475 3122 3366 
z
" transform="scale(0.015625)"/>
        <path id="DejaVuSans-58" d="M 544 1381 
L 544 3500 
L 1119 3500 
L 1119 1403 
Q 1119 906 1312 657 
Q 1506 409 1894 409 
Q 2359 409 2629 706 
Q 2900 1003 2900 1516 
L 2900 3500 
L 3475 3500 
L 3475 0 
L 2900 0 
L 2900 538 
Q 2691 219 2414 64 
Q 2138 -91 1772 -91 
Q 1169 -91 856 284 
Q 544 659 544 1381 
z
M 1991 3584 
L 1991 3584 
z
" transform="scale(0.015625)"/>
        <path id="DejaVuSans-31" d="M 628 4666 
L 1478 4666 
L 3547 763 
L 3547 4666 
L 4159 4666 
L 4159 0 
L 3309 0 
L 1241 3903 
L 1241 0 
L 628 0 
L 628 4666 
z
" transform="scale(0.015625)"/>
       </defs>
       <use xlink:href="#DejaVuSans-27"/>
       <use xlink:href="#DejaVuSans-52" transform="translate(77 0)"/>
       <use xlink:href="#DejaVuSans-46" transform="translate(138.1875 0)"/>
       <use xlink:href="#DejaVuSans-58" transform="translate(193.171875 0)"/>
       <use xlink:href="#DejaVuSans-50" transform="translate(256.546875 0)"/>
       <use xlink:href="#DejaVuSans-48" transform="translate(353.953125 0)"/>
       <use xlink:href="#DejaVuSans-51" transform="translate(415.484375 0)"/>
       <use xlink:href="#DejaVuSans-57" transform="translate(478.859375 0)"/>
       <use xlink:href="#DejaVuSans-3" transform="translate(518.0625 0)"/>
       <use xlink:href="#DejaVuSans-31" transform="translate(549.84375 0)"/>
       <use xlink:href="#DejaVuSans-44" transform="translate(624.65625 0)"/>
       <use xlink:href="#DejaVuSans-50" transform="translate(685.9375 0)"/>
       <use xlink:href="#DejaVuSans-48" transform="translate(783.34375 0)"/>
      </g>
     </g>
    </g>
    <g id="ytick_3">
     <g id="line2d_8">
      <g>
       <use xlink:href="#m98b98efbb1" x="210.173594" y="255.748031" style="stroke: #000000; stroke-width: 0.8"/>
      </g>
     </g>
     <g id="text_9">
      <!-- Notice Period To Terminate Renewal -->
      <g transform="translate(7.2 259.927172) scale(0.11 -0.11)">
       <defs>
        <path id="DejaVuSans-33" d="M 1259 4147 
L 1259 2394 
L 2053 2394 
Q 2494 2394 2734 2622 
Q 2975 2850 2975 3272 
Q 2975 3691 2734 3919 
Q 2494 4147 2053 4147 
L 1259 4147 
z
M 628 4666 
L 2053 4666 
Q 2838 4666 3239 4311 
Q 3641 3956 3641 3272 
Q 3641 2581 3239 2228 
Q 2838 1875 2053 1875 
L 1259 1875 
L 1259 0 
L 628 0 
L 628 4666 
z
" transform="scale(0.015625)"/>
        <path id="DejaVuSans-47" d="M 2906 2969 
L 2906 4863 
L 3481 4863 
L 3481 0 
L 2906 0 
L 2906 525 
Q 2725 213 2448 61 
Q 2172 -91 1784 -91 
Q 1150 -91 751 415 
Q 353 922 353 1747 
Q 353 2572 751 3078 
Q 1150 3584 1784 3584 
Q 2172 3584 2448 3432 
Q 2725 3281 2906 2969 
z
M 947 1747 
Q 947 1113 1208 752 
Q 1469 391 1925 391 
Q 2381 391 2643 752 
Q 2906 1113 2906 1747 
Q 2906 2381 2643 2742 
Q 2381 3103 1925 3103 
Q 1469 3103 1208 2742 
Q 947 2381 947 1747 
z
" transform="scale(0.015625)"/>
       </defs>
       <use xlink:href="#DejaVuSans-31"/>
       <use xlink:href="#DejaVuSans-52" transform="translate(74.8125 0)"/>
       <use xlink:href="#DejaVuSans-57" transform="translate(136 0)"/>
       <use xlink:href="#DejaVuSans-4c" transform="translate(175.203125 0)"/>
       <use xlink:href="#DejaVuSans-46" transform="translate(202.984375 0)"/>
       <use xlink:href="#DejaVuSans-48" transform="translate(257.96875 0)"/>
       <use xlink:href="#DejaVuSans-3" transform="translate(319.5 0)"/>
       <use xlink:href="#DejaVuSans-33" transform="translate(351.28125 0)"/>
       <use xlink:href="#DejaVuSans-48" transform="translate(408.015625 0)"/>
       <use xlink:href="#DejaVuSans-55" transform="translate(469.546875 0)"/>
       <use xlink:href="#DejaVuSans-4c" transform="translate(510.65625 0)"/>
       <use xlink:href="#DejaVuSans-52" transform="translate(538.4375 0)"/>
       <use xlink:href="#DejaVuSans-47" transform="translate(599.625 0)"/>
       <use xlink:href="#DejaVuSans-3" transform="translate(663.109375 0)"/>
       <use xlink:href="#DejaVuSans-37" transform="translate(694.890625 0)"/>
       <use xlink:href="#DejaVuSans-52" transform="translate(738.984375 0)"/>
       <use xlink:href="#DejaVuSans-3" transform="translate(800.171875 0)"/>
       <use xlink:href="#DejaVuSans-37" transform="translate(831.953125 0)"/>
       <use xlink:href="#DejaVuSans-48" transform="translate(876.046875 0)"/>
       <use xlink:href="#DejaVuSans-55" transform="translate(937.578125 0)"/>
       <use xlink:href="#DejaVuSans-50" transform="translate(976.9375 0)"/>
       <use xlink:href="#DejaVuSans-4c" transform="translate(1074.34375 0)"/>
       <use xlink:href="#DejaVuSans-51" transform="translate(1102.125 0)"/>
       <use xlink:href="#DejaVuSans-44" transform="translate(1165.5 0)"/>
       <use xlink:href="#DejaVuSans-57" transform="translate(1226.78125 0)"/>
       <use xlink:href="#DejaVuSans-48" transform="translate(1265.984375 0)"/>
       <use xlink:href="#DejaVuSans-3" transform="translate(1327.515625 0)"/>
       <use xlink:href="#DejaVuSans-35" transform="translate(1359.296875 0)"/>
       <use xlink:href="#DejaVuSans-48" transform="translate(1424.296875 0)"/>
       <use xlink:href="#DejaVuSans-51" transform="translate(1485.828125 0)"/>
       <use xlink:href="#DejaVuSans-48" transform="translate(1549.203125 0)"/>
       <use xlink:href="#DejaVuSans-5a" transform="translate(1610.734375 0)"/>
       <use xlink:href="#DejaVuSans-44" transform="translate(1692.515625 0)"/>
       <use xlink:href="#DejaVuSans-4f" transform="translate(1753.796875 0)"/>
      </g>
     </g>
    </g>
    <g id="ytick_4">
     <g id="line2d_9">
      <g>
       <use xlink:href="#m98b98efbb1" x="210.173594" y="232.305614" style="stroke: #000000; stroke-width: 0.8"/>
      </g>
     </g>
     <g id="text_10">
      <!-- Termination For Convenience -->
      <g transform="translate(43.247344 236.484754) scale(0.11 -0.11)">
       <defs>
        <path id="DejaVuSans-29" d="M 628 4666 
L 3309 4666 
L 3309 4134 
L 1259 4134 
L 1259 2759 
L 3109 2759 
L 3109 2228 
L 1259 2228 
L 1259 0 
L 628 0 
L 628 4666 
z
" transform="scale(0.015625)"/>
        <path id="DejaVuSans-26" d="M 4122 4306 
L 4122 3641 
Q 3803 3938 3442 4084 
Q 3081 4231 2675 4231 
Q 1875 4231 1450 3742 
Q 1025 3253 1025 2328 
Q 1025 1406 1450 917 
Q 1875 428 2675 428 
Q 3081 428 3442 575 
Q 3803 722 4122 1019 
L 4122 359 
Q 3791 134 3420 21 
Q 3050 -91 2638 -91 
Q 1578 -91 968 557 
Q 359 1206 359 2328 
Q 359 3453 968 4101 
Q 1578 4750 2638 4750 
Q 3056 4750 3426 4639 
Q 3797 4528 4122 4306 
z
" transform="scale(0.015625)"/>
       </defs>
       <use xlink:href="#DejaVuSans-37"/>
       <use xlink:href="#DejaVuSans-48" transform="translate(44.09375 0)"/>
       <use xlink:href="#DejaVuSans-55" transform="translate(105.625 0)"/>
       <use xlink:href="#DejaVuSans-50" transform="translate(144.984375 0)"/>
       <use xlink:href="#DejaVuSans-4c" transform="translate(242.390625 0)"/>
       <use xlink:href="#DejaVuSans-51" transform="translate(270.171875 0)"/>
       <use xlink:href="#DejaVuSans-44" transform="translate(333.546875 0)"/>
       <use xlink:href="#DejaVuSans-57" transform="translate(394.828125 0)"/>
       <use xlink:href="#DejaVuSans-4c" transform="translate(434.03125 0)"/>
       <use xlink:href="#DejaVuSans-52" transform="translate(461.8125 0)"/>
       <use xlink:href="#DejaVuSans-51" transform="translate(523 0)"/>
       <use xlink:href="#DejaVuSans-3" transform="translate(586.375 0)"/>
       <use xlink:href="#DejaVuSans-29" transform="translate(618.15625 0)"/>
       <use xlink:href="#DejaVuSans-52" transform="translate(672.109375 0)"/>
       <use xlink:href="#DejaVuSans-55" transform="translate(733.296875 0)"/>
       <use xlink:href="#DejaVuSans-3" transform="translate(774.40625 0)"/>
       <use xlink:href="#DejaVuSans-26" transform="translate(806.1875 0)"/>
       <use xlink:href="#DejaVuSans-52" transform="translate(876.015625 0)"/>
       <use xlink:href="#DejaVuSans-51" transform="translate(937.203125 0)"/>
       <use xlink:href="#DejaVuSans-59" transform="translate(1000.578125 0)"/>
       <use xlink:href="#DejaVuSans-48" transform="translate(1059.765625 0)"/>
       <use xlink:href="#DejaVuSans-51" transform="translate(1121.296875 0)"/>
       <use xlink:href="#DejaVuSans-4c" transform="translate(1184.671875 0)"/>
       <use xlink:href="#DejaVuSans-48" transform="translate(1212.453125 0)"/>
       <use xlink:href="#DejaVuSans-51" transform="translate(1273.984375 0)"/>
       <use xlink:href="#DejaVuSans-46" transform="translate(1337.359375 0)"/>
       <use xlink:href="#DejaVuSans-48" transform="translate(1392.34375 0)"/>
      </g>
     </g>
    </g>
    <g id="ytick_5">
     <g id="line2d_10">
      <g>
       <use xlink:href="#m98b98efbb1" x="210.173594" y="208.863196" style="stroke: #000000; stroke-width: 0.8"/>
      </g>
     </g>
     <g id="text_11">
      <!-- Affiliate License-Licensee -->
      <g transform="translate(63.903281 213.042337) scale(0.11 -0.11)">
       <defs>
        <path id="DejaVuSans-24" d="M 2188 4044 
L 1331 1722 
L 3047 1722 
L 2188 4044 
z
M 1831 4666 
L 2547 4666 
L 4325 0 
L 3669 0 
L 3244 1197 
L 1141 1197 
L 716 0 
L 50 0 
L 1831 4666 
z
" transform="scale(0.015625)"/>
        <path id="DejaVuSans-13b1" d="M 2375 4863 
L 2375 4384 
L 1825 4384 
Q 1516 4384 1394 4259 
Q 1275 4134 1275 3809 
L 1275 3500 
L 2853 3500 
L 2853 3744 
Q 2853 4328 3125 4594 
Q 3213 4681 3334 4741 
Q 3578 4863 3988 4863 
L 4531 4863 
L 4531 4384 
L 3981 4384 
Q 3672 4384 3551 4259 
Q 3431 4134 3431 3809 
L 3431 3500 
L 5588 3500 
L 5588 0 
L 5009 0 
L 5009 3053 
L 3431 3053 
L 3431 0 
L 2853 0 
L 2853 3053 
L 1275 3053 
L 1275 0 
L 697 0 
L 697 3053 
L 147 3053 
L 147 3500 
L 697 3500 
L 697 3744 
Q 697 4328 969 4595 
Q 1241 4863 1831 4863 
L 2375 4863 
z
M 5009 4856 
L 5588 4856 
L 5588 4128 
L 5009 4128 
L 5009 4856 
z
" transform="scale(0.015625)"/>
        <path id="DejaVuSans-2f" d="M 628 4666 
L 1259 4666 
L 1259 531 
L 3531 531 
L 3531 0 
L 628 0 
L 628 4666 
z
" transform="scale(0.015625)"/>
        <path id="DejaVuSans-10" d="M 313 2009 
L 1997 2009 
L 1997 1497 
L 313 1497 
L 313 2009 
z
" transform="scale(0.015625)"/>
       </defs>
       <use xlink:href="#DejaVuSans-24"/>
       <use xlink:href="#DejaVuSans-13b1" transform="translate(68.40625 0)"/>
       <use xlink:href="#DejaVuSans-4f" transform="translate(165.09375 0)"/>
       <use xlink:href="#DejaVuSans-4c" transform="translate(192.875 0)"/>
       <use xlink:href="#DejaVuSans-44" transform="translate(220.65625 0)"/>
       <use xlink:href="#DejaVuSans-57" transform="translate(281.9375 0)"/>
       <use xlink:href="#DejaVuSans-48" transform="translate(321.140625 0)"/>
       <use xlink:href="#DejaVuSans-3" transform="translate(382.671875 0)"/>
       <use xlink:href="#DejaVuSans-2f" transform="translate(414.453125 0)"/>
       <use xlink:href="#DejaVuSans-4c" transform="translate(470.171875 0)"/>
       <use xlink:href="#DejaVuSans-46" transform="translate(497.953125 0)"/>
       <use xlink:href="#DejaVuSans-48" transform="translate(552.9375 0)"/>
       <use xlink:href="#DejaVuSans-51" transform="translate(614.46875 0)"/>
       <use xlink:href="#DejaVuSans-56" transform="translate(677.84375 0)"/>
       <use xlink:href="#DejaVuSans-48" transform="translate(729.9375 0)"/>
       <use xlink:href="#DejaVuSans-10" transform="translate(791.46875 0)"/>
       <use xlink:href="#DejaVuSans-2f" transform="translate(827.546875 0)"/>
       <use xlink:href="#DejaVuSans-4c" transform="translate(883.265625 0)"/>
       <use xlink:href="#DejaVuSans-46" transform="translate(911.046875 0)"/>
       <use xlink:href="#DejaVuSans-48" transform="translate(966.03125 0)"/>
       <use xlink:href="#DejaVuSans-51" transform="translate(1027.5625 0)"/>
       <use xlink:href="#DejaVuSans-56" transform="translate(1090.9375 0)"/>
       <use xlink:href="#DejaVuSans-48" transform="translate(1143.03125 0)"/>
       <use xlink:href="#DejaVuSans-48" transform="translate(1204.5625 0)"/>
      </g>
     </g>
    </g>
    <g id="ytick_6">
     <g id="line2d_11">
      <g>
       <use xlink:href="#m98b98efbb1" x="210.173594" y="185.420779" style="stroke: #000000; stroke-width: 0.8"/>
      </g>
     </g>
     <g id="text_12">
      <!-- License Grant -->
      <g transform="translate(127.136094 189.59992) scale(0.11 -0.11)">
       <defs>
        <path id="DejaVuSans-2a" d="M 3809 666 
L 3809 1919 
L 2778 1919 
L 2778 2438 
L 4434 2438 
L 4434 434 
Q 4069 175 3628 42 
Q 3188 -91 2688 -91 
Q 1594 -91 976 548 
Q 359 1188 359 2328 
Q 359 3472 976 4111 
Q 1594 4750 2688 4750 
Q 3144 4750 3555 4637 
Q 3966 4525 4313 4306 
L 4313 3634 
Q 3963 3931 3569 4081 
Q 3175 4231 2741 4231 
Q 1884 4231 1454 3753 
Q 1025 3275 1025 2328 
Q 1025 1384 1454 906 
Q 1884 428 2741 428 
Q 3075 428 3337 486 
Q 3600 544 3809 666 
z
" transform="scale(0.015625)"/>
       </defs>
       <use xlink:href="#DejaVuSans-2f"/>
       <use xlink:href="#DejaVuSans-4c" transform="translate(55.71875 0)"/>
       <use xlink:href="#DejaVuSans-46" transform="translate(83.5 0)"/>
       <use xlink:href="#DejaVuSans-48" transform="translate(138.484375 0)"/>
       <use xlink:href="#DejaVuSans-51" transform="translate(200.015625 0)"/>
       <use xlink:href="#DejaVuSans-56" transform="translate(263.390625 0)"/>
       <use xlink:href="#DejaVuSans-48" transform="translate(315.484375 0)"/>
       <use xlink:href="#DejaVuSans-3" transform="translate(377.015625 0)"/>
       <use xlink:href="#DejaVuSans-2a" transform="translate(408.796875 0)"/>
       <use xlink:href="#DejaVuSans-55" transform="translate(486.28125 0)"/>
       <use xlink:href="#DejaVuSans-44" transform="translate(527.390625 0)"/>
       <use xlink:href="#DejaVuSans-51" transform="translate(588.671875 0)"/>
       <use xlink:href="#DejaVuSans-57" transform="translate(652.046875 0)"/>
      </g>
     </g>
    </g>
    <g id="ytick_7">
     <g id="line2d_12">
      <g>
       <use xlink:href="#m98b98efbb1" x="210.173594" y="161.978362" style="stroke: #000000; stroke-width: 0.8"/>
      </g>
     </g>
     <g id="text_13">
      <!-- Change Of Control -->
      <g transform="translate(101.7725 166.157502) scale(0.11 -0.11)">
       <defs>
        <path id="DejaVuSans-4b" d="M 3513 2113 
L 3513 0 
L 2938 0 
L 2938 2094 
Q 2938 2591 2744 2837 
Q 2550 3084 2163 3084 
Q 1697 3084 1428 2787 
Q 1159 2491 1159 1978 
L 1159 0 
L 581 0 
L 581 4863 
L 1159 4863 
L 1159 2956 
Q 1366 3272 1645 3428 
Q 1925 3584 2291 3584 
Q 2894 3584 3203 3211 
Q 3513 2838 3513 2113 
z
" transform="scale(0.015625)"/>
        <path id="DejaVuSans-4a" d="M 2906 1791 
Q 2906 2416 2648 2759 
Q 2391 3103 1925 3103 
Q 1463 3103 1205 2759 
Q 947 2416 947 1791 
Q 947 1169 1205 825 
Q 1463 481 1925 481 
Q 2391 481 2648 825 
Q 2906 1169 2906 1791 
z
M 3481 434 
Q 3481 -459 3084 -895 
Q 2688 -1331 1869 -1331 
Q 1566 -1331 1297 -1286 
Q 1028 -1241 775 -1147 
L 775 -588 
Q 1028 -725 1275 -790 
Q 1522 -856 1778 -856 
Q 2344 -856 2625 -561 
Q 2906 -266 2906 331 
L 2906 616 
Q 2728 306 2450 153 
Q 2172 0 1784 0 
Q 1141 0 747 490 
Q 353 981 353 1791 
Q 353 2603 747 3093 
Q 1141 3584 1784 3584 
Q 2172 3584 2450 3431 
Q 2728 3278 2906 2969 
L 2906 3500 
L 3481 3500 
L 3481 434 
z
" transform="scale(0.015625)"/>
        <path id="DejaVuSans-32" d="M 2522 4238 
Q 1834 4238 1429 3725 
Q 1025 3213 1025 2328 
Q 1025 1447 1429 934 
Q 1834 422 2522 422 
Q 3209 422 3611 934 
Q 4013 1447 4013 2328 
Q 4013 3213 3611 3725 
Q 3209 4238 2522 4238 
z
M 2522 4750 
Q 3503 4750 4090 4092 
Q 4678 3434 4678 2328 
Q 4678 1225 4090 567 
Q 3503 -91 2522 -91 
Q 1538 -91 948 565 
Q 359 1222 359 2328 
Q 359 3434 948 4092 
Q 1538 4750 2522 4750 
z
" transform="scale(0.015625)"/>
        <path id="DejaVuSans-49" d="M 2375 4863 
L 2375 4384 
L 1825 4384 
Q 1516 4384 1395 4259 
Q 1275 4134 1275 3809 
L 1275 3500 
L 2222 3500 
L 2222 3053 
L 1275 3053 
L 1275 0 
L 697 0 
L 697 3053 
L 147 3053 
L 147 3500 
L 697 3500 
L 697 3744 
Q 697 4328 969 4595 
Q 1241 4863 1831 4863 
L 2375 4863 
z
" transform="scale(0.015625)"/>
       </defs>
       <use xlink:href="#DejaVuSans-26"/>
       <use xlink:href="#DejaVuSans-4b" transform="translate(69.828125 0)"/>
       <use xlink:href="#DejaVuSans-44" transform="translate(133.203125 0)"/>
       <use xlink:href="#DejaVuSans-51" transform="translate(194.484375 0)"/>
       <use xlink:href="#DejaVuSans-4a" transform="translate(257.859375 0)"/>
       <use xlink:href="#DejaVuSans-48" transform="translate(321.34375 0)"/>
       <use xlink:href="#DejaVuSans-3" transform="translate(382.875 0)"/>
       <use xlink:href="#DejaVuSans-32" transform="translate(414.65625 0)"/>
       <use xlink:href="#DejaVuSans-49" transform="translate(493.375 0)"/>
       <use xlink:href="#DejaVuSans-3" transform="translate(528.578125 0)"/>
       <use xlink:href="#DejaVuSans-26" transform="translate(560.359375 0)"/>
       <use xlink:href="#DejaVuSans-52" transform="translate(630.1875 0)"/>
       <use xlink:href="#DejaVuSans-51" transform="translate(691.375 0)"/>
       <use xlink:href="#DejaVuSans-57" transform="translate(754.75 0)"/>
       <use xlink:href="#DejaVuSans-55" transform="translate(793.953125 0)"/>
       <use xlink:href="#DejaVuSans-52" transform="translate(832.859375 0)"/>
       <use xlink:href="#DejaVuSans-4f" transform="translate(894.046875 0)"/>
      </g>
     </g>
    </g>
    <g id="ytick_8">
     <g id="line2d_13">
      <g>
       <use xlink:href="#m98b98efbb1" x="210.173594" y="138.535944" style="stroke: #000000; stroke-width: 0.8"/>
      </g>
     </g>
     <g id="text_14">
      <!-- Ip Ownership Assignment -->
      <g transform="translate(62.533437 142.715085) scale(0.11 -0.11)">
       <defs>
        <path id="DejaVuSans-53" d="M 1159 525 
L 1159 -1331 
L 581 -1331 
L 581 3500 
L 1159 3500 
L 1159 2969 
Q 1341 3281 1617 3432 
Q 1894 3584 2278 3584 
Q 2916 3584 3314 3078 
Q 3713 2572 3713 1747 
Q 3713 922 3314 415 
Q 2916 -91 2278 -91 
Q 1894 -91 1617 61 
Q 1341 213 1159 525 
z
M 3116 1747 
Q 3116 2381 2855 2742 
Q 2594 3103 2138 3103 
Q 1681 3103 1420 2742 
Q 1159 2381 1159 1747 
Q 1159 1113 1420 752 
Q 1681 391 2138 391 
Q 2594 391 2855 752 
Q 3116 1113 3116 1747 
z
" transform="scale(0.015625)"/>
       </defs>
       <use xlink:href="#DejaVuSans-2c"/>
       <use xlink:href="#DejaVuSans-53" transform="translate(29.5 0)"/>
       <use xlink:href="#DejaVuSans-3" transform="translate(92.984375 0)"/>
       <use xlink:href="#DejaVuSans-32" transform="translate(124.765625 0)"/>
       <use xlink:href="#DejaVuSans-5a" transform="translate(203.484375 0)"/>
       <use xlink:href="#DejaVuSans-51" transform="translate(285.265625 0)"/>
       <use xlink:href="#DejaVuSans-48" transform="translate(348.640625 0)"/>
       <use xlink:href="#DejaVuSans-55" transform="translate(410.171875 0)"/>
       <use xlink:href="#DejaVuSans-56" transform="translate(451.28125 0)"/>
       <use xlink:href="#DejaVuSans-4b" transform="translate(503.375 0)"/>
       <use xlink:href="#DejaVuSans-4c" transform="translate(566.75 0)"/>
       <use xlink:href="#DejaVuSans-53" transform="translate(594.53125 0)"/>
       <use xlink:href="#DejaVuSans-3" transform="translate(658.015625 0)"/>
       <use xlink:href="#DejaVuSans-24" transform="translate(689.796875 0)"/>
       <use xlink:href="#DejaVuSans-56" transform="translate(758.203125 0)"/>
       <use xlink:href="#DejaVuSans-56" transform="translate(810.296875 0)"/>
       <use xlink:href="#DejaVuSans-4c" transform="translate(862.390625 0)"/>
       <use xlink:href="#DejaVuSans-4a" transform="translate(890.171875 0)"/>
       <use xlink:href="#DejaVuSans-51" transform="translate(953.65625 0)"/>
       <use xlink:href="#DejaVuSans-50" transform="translate(1017.03125 0)"/>
       <use xlink:href="#DejaVuSans-48" transform="translate(1114.4375 0)"/>
       <use xlink:href="#DejaVuSans-51" transform="translate(1175.96875 0)"/>
       <use xlink:href="#DejaVuSans-57" transform="translate(1239.34375 0)"/>
      </g>
     </g>
    </g>
    <g id="ytick_9">
     <g id="line2d_14">
      <g>
       <use xlink:href="#m98b98efbb1" x="210.173594" y="115.093527" style="stroke: #000000; stroke-width: 0.8"/>
      </g>
     </g>
     <g id="text_15">
      <!-- Exclusivity -->
      <g transform="translate(144.653594 119.272667) scale(0.11 -0.11)">
       <defs>
        <path id="DejaVuSans-28" d="M 628 4666 
L 3578 4666 
L 3578 4134 
L 1259 4134 
L 1259 2753 
L 3481 2753 
L 3481 2222 
L 1259 2222 
L 1259 531 
L 3634 531 
L 3634 0 
L 628 0 
L 628 4666 
z
" transform="scale(0.015625)"/>
        <path id="DejaVuSans-5b" d="M 3513 3500 
L 2247 1797 
L 3578 0 
L 2900 0 
L 1881 1375 
L 863 0 
L 184 0 
L 1544 1831 
L 300 3500 
L 978 3500 
L 1906 2253 
L 2834 3500 
L 3513 3500 
z
" transform="scale(0.015625)"/>
        <path id="DejaVuSans-5c" d="M 2059 -325 
Q 1816 -950 1584 -1140 
Q 1353 -1331 966 -1331 
L 506 -1331 
L 506 -850 
L 844 -850 
Q 1081 -850 1212 -737 
Q 1344 -625 1503 -206 
L 1606 56 
L 191 3500 
L 800 3500 
L 1894 763 
L 2988 3500 
L 3597 3500 
L 2059 -325 
z
" transform="scale(0.015625)"/>
       </defs>
       <use xlink:href="#DejaVuSans-28"/>
       <use xlink:href="#DejaVuSans-5b" transform="translate(63.1875 0)"/>
       <use xlink:href="#DejaVuSans-46" transform="translate(120.625 0)"/>
       <use xlink:href="#DejaVuSans-4f" transform="translate(175.609375 0)"/>
       <use xlink:href="#DejaVuSans-58" transform="translate(203.390625 0)"/>
       <use xlink:href="#DejaVuSans-56" transform="translate(266.765625 0)"/>
       <use xlink:href="#DejaVuSans-4c" transform="translate(318.859375 0)"/>
       <use xlink:href="#DejaVuSans-59" transform="translate(346.640625 0)"/>
       <use xlink:href="#DejaVuSans-4c" transform="translate(405.828125 0)"/>
       <use xlink:href="#DejaVuSans-57" transform="translate(433.609375 0)"/>
       <use xlink:href="#DejaVuSans-5c" transform="translate(472.8125 0)"/>
      </g>
     </g>
    </g>
    <g id="ytick_10">
     <g id="line2d_15">
      <g>
       <use xlink:href="#m98b98efbb1" x="210.173594" y="91.651109" style="stroke: #000000; stroke-width: 0.8"/>
      </g>
     </g>
     <g id="text_16">
      <!-- Uncapped Liability -->
      <g transform="translate(101.248281 95.83025) scale(0.11 -0.11)">
       <defs>
        <path id="DejaVuSans-38" d="M 556 4666 
L 1191 4666 
L 1191 1831 
Q 1191 1081 1462 751 
Q 1734 422 2344 422 
Q 2950 422 3222 751 
Q 3494 1081 3494 1831 
L 3494 4666 
L 4128 4666 
L 4128 1753 
Q 4128 841 3676 375 
Q 3225 -91 2344 -91 
Q 1459 -91 1007 375 
Q 556 841 556 1753 
L 556 4666 
z
" transform="scale(0.015625)"/>
       </defs>
       <use xlink:href="#DejaVuSans-38"/>
       <use xlink:href="#DejaVuSans-51" transform="translate(73.1875 0)"/>
       <use xlink:href="#DejaVuSans-46" transform="translate(136.5625 0)"/>
       <use xlink:href="#DejaVuSans-44" transform="translate(191.546875 0)"/>
       <use xlink:href="#DejaVuSans-53" transform="translate(252.828125 0)"/>
       <use xlink:href="#DejaVuSans-53" transform="translate(316.3125 0)"/>
       <use xlink:href="#DejaVuSans-48" transform="translate(379.796875 0)"/>
       <use xlink:href="#DejaVuSans-47" transform="translate(441.328125 0)"/>
       <use xlink:href="#DejaVuSans-3" transform="translate(504.8125 0)"/>
       <use xlink:href="#DejaVuSans-2f" transform="translate(536.59375 0)"/>
       <use xlink:href="#DejaVuSans-4c" transform="translate(592.3125 0)"/>
       <use xlink:href="#DejaVuSans-44" transform="translate(620.09375 0)"/>
       <use xlink:href="#DejaVuSans-45" transform="translate(681.375 0)"/>
       <use xlink:href="#DejaVuSans-4c" transform="translate(744.859375 0)"/>
       <use xlink:href="#DejaVuSans-4f" transform="translate(772.640625 0)"/>
       <use xlink:href="#DejaVuSans-4c" transform="translate(800.421875 0)"/>
       <use xlink:href="#DejaVuSans-57" transform="translate(828.203125 0)"/>
       <use xlink:href="#DejaVuSans-5c" transform="translate(867.40625 0)"/>
      </g>
     </g>
    </g>
    <g id="ytick_11">
     <g id="line2d_16">
      <g>
       <use xlink:href="#m98b98efbb1" x="210.173594" y="68.208692" style="stroke: #000000; stroke-width: 0.8"/>
      </g>
     </g>
     <g id="text_17">
      <!-- Parties -->
      <g transform="translate(165.904219 72.387833) scale(0.11 -0.11)">
       <use xlink:href="#DejaVuSans-33"/>
       <use xlink:href="#DejaVuSans-44" transform="translate(55.8125 0)"/>
       <use xlink:href="#DejaVuSans-55" transform="translate(117.09375 0)"/>
       <use xlink:href="#DejaVuSans-57" transform="translate(158.203125 0)"/>
       <use xlink:href="#DejaVuSans-4c" transform="translate(197.40625 0)"/>
       <use xlink:href="#DejaVuSans-48" transform="translate(225.1875 0)"/>
       <use xlink:href="#DejaVuSans-56" transform="translate(286.71875 0)"/>
      </g>
     </g>
    </g>
    <g id="ytick_12">
     <g id="line2d_17">
      <g>
       <use xlink:href="#m98b98efbb1" x="210.173594" y="44.766274" style="stroke: #000000; stroke-width: 0.8"/>
      </g>
     </g>
     <g id="text_18">
      <!-- Rofr/Rofo/Rofn -->
      <g transform="translate(124.279531 48.945415) scale(0.11 -0.11)">
       <defs>
        <path id="DejaVuSans-12" d="M 1625 4666 
L 2156 4666 
L 531 -594 
L 0 -594 
L 1625 4666 
z
" transform="scale(0.015625)"/>
       </defs>
       <use xlink:href="#DejaVuSans-35"/>
       <use xlink:href="#DejaVuSans-52" transform="translate(65 0)"/>
       <use xlink:href="#DejaVuSans-49" transform="translate(126.1875 0)"/>
       <use xlink:href="#DejaVuSans-55" transform="translate(161.390625 0)"/>
       <use xlink:href="#DejaVuSans-12" transform="translate(202.5 0)"/>
       <use xlink:href="#DejaVuSans-35" transform="translate(236.1875 0)"/>
       <use xlink:href="#DejaVuSans-52" transform="translate(301.1875 0)"/>
       <use xlink:href="#DejaVuSans-49" transform="translate(362.375 0)"/>
       <use xlink:href="#DejaVuSans-52" transform="translate(397.578125 0)"/>
       <use xlink:href="#DejaVuSans-12" transform="translate(458.765625 0)"/>
       <use xlink:href="#DejaVuSans-35" transform="translate(492.453125 0)"/>
       <use xlink:href="#DejaVuSans-52" transform="translate(557.453125 0)"/>
       <use xlink:href="#DejaVuSans-49" transform="translate(618.640625 0)"/>
       <use xlink:href="#DejaVuSans-51" transform="translate(653.84375 0)"/>
      </g>
     </g>
    </g>
   </g>
   <g id="LineCollection_1">
    <path d="M 210.173594 302.632866 
L 210.173594 302.632866 
" clip-path="url(#p2b252ac7a2)" style="fill: none; stroke: #000000; stroke-width: 1.5"/>
    <path d="M 210.173594 279.190449 
L 210.173594 279.190449 
" clip-path="url(#p2b252ac7a2)" style="fill: none; stroke: #000000; stroke-width: 1.5"/>
    <path d="M 210.173594 255.748031 
L 210.173594 255.748031 
" clip-path="url(#p2b252ac7a2)" style="fill: none; stroke: #000000; stroke-width: 1.5"/>
    <path d="M 210.173594 232.305614 
L 210.173594 232.305614 
" clip-path="url(#p2b252ac7a2)" style="fill: none; stroke: #000000; stroke-width: 1.5"/>
    <path d="M 243.08459 208.863196 
L 322.797144 208.863196 
" clip-path="url(#p2b252ac7a2)" style="fill: none; stroke: #000000; stroke-width: 1.5"/>
    <path d="M 260.082466 185.420779 
L 311.863207 185.420779 
" clip-path="url(#p2b252ac7a2)" style="fill: none; stroke: #000000; stroke-width: 1.5"/>
    <path d="M 260.894162 161.978362 
L 321.158077 161.978362 
" clip-path="url(#p2b252ac7a2)" style="fill: none; stroke: #000000; stroke-width: 1.5"/>
    <path d="M 260.894162 138.535944 
L 321.158077 138.535944 
" clip-path="url(#p2b252ac7a2)" style="fill: none; stroke: #000000; stroke-width: 1.5"/>
    <path d="M 263.998792 115.093527 
L 338.266579 115.093527 
" clip-path="url(#p2b252ac7a2)" style="fill: none; stroke: #000000; stroke-width: 1.5"/>
    <path d="M 279.468226 91.651109 
L 359.18078 91.651109 
" clip-path="url(#p2b252ac7a2)" style="fill: none; stroke: #000000; stroke-width: 1.5"/>
    <path d="M 306.696453 68.208692 
L 356.208311 68.208692 
" clip-path="url(#p2b252ac7a2)" style="fill: none; stroke: #000000; stroke-width: 1.5"/>
    <path d="M 332.697108 44.766274 
L 378.719172 44.766274 
" clip-path="url(#p2b252ac7a2)" style="fill: none; stroke: #000000; stroke-width: 1.5"/>
   </g>
   <g id="line2d_18">
    <defs>
     <path id="mf05476bb33" d="M 0 3 
L 0 -3 
" style="stroke: #000000"/>
    </defs>
    <g clip-path="url(#p2b252ac7a2)">
     <use xlink:href="#mf05476bb33" x="210.173594" y="302.632866" style="fill: #1f77b4; stroke: #000000"/>
     <use xlink:href="#mf05476bb33" x="210.173594" y="279.190449" style="fill: #1f77b4; stroke: #000000"/>
     <use xlink:href="#mf05476bb33" x="210.173594" y="255.748031" style="fill: #1f77b4; stroke: #000000"/>
     <use xlink:href="#mf05476bb33" x="210.173594" y="232.305614" style="fill: #1f77b4; stroke: #000000"/>
     <use xlink:href="#mf05476bb33" x="243.08459" y="208.863196" style="fill: #1f77b4; stroke: #000000"/>
     <use xlink:href="#mf05476bb33" x="260.082466" y="185.420779" style="fill: #1f77b4; stroke: #000000"/>
     <use xlink:href="#mf05476bb33" x="260.894162" y="161.978362" style="fill: #1f77b4; stroke: #000000"/>
     <use xlink:href="#mf05476bb33" x="260.894162" y="138.535944" style="fill: #1f77b4; stroke: #000000"/>
     <use xlink:href="#mf05476bb33" x="263.998792" y="115.093527" style="fill: #1f77b4; stroke: #000000"/>
     <use xlink:href="#mf05476bb33" x="279.468226" y="91.651109" style="fill: #1f77b4; stroke: #000000"/>
     <use xlink:href="#mf05476bb33" x="306.696453" y="68.208692" style="fill: #1f77b4; stroke: #000000"/>
     <use xlink:href="#mf05476bb33" x="332.697108" y="44.766274" style="fill: #1f77b4; stroke: #000000"/>
    </g>
   </g>
   <g id="line2d_19">
    <g clip-path="url(#p2b252ac7a2)">
     <use xlink:href="#mf05476bb33" x="210.173594" y="302.632866" style="fill: #1f77b4; stroke: #000000"/>
     <use xlink:href="#mf05476bb33" x="210.173594" y="279.190449" style="fill: #1f77b4; stroke: #000000"/>
     <use xlink:href="#mf05476bb33" x="210.173594" y="255.748031" style="fill: #1f77b4; stroke: #000000"/>
     <use xlink:href="#mf05476bb33" x="210.173594" y="232.305614" style="fill: #1f77b4; stroke: #000000"/>
     <use xlink:href="#mf05476bb33" x="322.797144" y="208.863196" style="fill: #1f77b4; stroke: #000000"/>
     <use xlink:href="#mf05476bb33" x="311.863207" y="185.420779" style="fill: #1f77b4; stroke: #000000"/>
     <use xlink:href="#mf05476bb33" x="321.158077" y="161.978362" style="fill: #1f77b4; stroke: #000000"/>
     <use xlink:href="#mf05476bb33" x="321.158077" y="138.535944" style="fill: #1f77b4; stroke: #000000"/>
     <use xlink:href="#mf05476bb33" x="338.266579" y="115.093527" style="fill: #1f77b4; stroke: #000000"/>
     <use xlink:href="#mf05476bb33" x="359.18078" y="91.651109" style="fill: #1f77b4; stroke: #000000"/>
     <use xlink:href="#mf05476bb33" x="356.208311" y="68.208692" style="fill: #1f77b4; stroke: #000000"/>
     <use xlink:href="#mf05476bb33" x="378.719172" y="44.766274" style="fill: #1f77b4; stroke: #000000"/>
    </g>
   </g>
   <g id="line2d_20">
    <path d="M 268.387412 325.840859 
L 268.387412 21.558281 
" clip-path="url(#p2b252ac7a2)" style="fill: none; stroke-dasharray: 3.7,1.6; stroke-dashoffset: 0; stroke: #808080"/>
   </g>
   <g id="patch_15">
    <path d="M 210.173594 325.840859 
L 210.173594 21.558281 
" style="fill: none; stroke: #000000; stroke-width: 0.8; stroke-linejoin: miter; stroke-linecap: square"/>
   </g>
   <g id="patch_16">
    <path d="M 210.173594 325.840859 
L 387.146451 325.840859 
" style="fill: none; stroke: #000000; stroke-width: 0.8; stroke-linejoin: miter; stroke-linecap: square"/>
   </g>
   <g id="text_19">
    <!-- Stratum B inversion by CUAD category -->
    <g transform="translate(191.791585 15.558281) scale(0.11 -0.11)">
     <defs>
      <path id="DejaVuSans-36" d="M 3425 4513 
L 3425 3897 
Q 3066 4069 2747 4153 
Q 2428 4238 2131 4238 
Q 1616 4238 1336 4038 
Q 1056 3838 1056 3469 
Q 1056 3159 1242 3001 
Q 1428 2844 1947 2747 
L 2328 2669 
Q 3034 2534 3370 2195 
Q 3706 1856 3706 1288 
Q 3706 609 3251 259 
Q 2797 -91 1919 -91 
Q 1588 -91 1214 -16 
Q 841 59 441 206 
L 441 856 
Q 825 641 1194 531 
Q 1563 422 1919 422 
Q 2459 422 2753 634 
Q 3047 847 3047 1241 
Q 3047 1584 2836 1778 
Q 2625 1972 2144 2069 
L 1759 2144 
Q 1053 2284 737 2584 
Q 422 2884 422 3419 
Q 422 4038 858 4394 
Q 1294 4750 2059 4750 
Q 2388 4750 2728 4690 
Q 3069 4631 3425 4513 
z
" transform="scale(0.015625)"/>
      <path id="DejaVuSans-25" d="M 1259 2228 
L 1259 519 
L 2272 519 
Q 2781 519 3026 730 
Q 3272 941 3272 1375 
Q 3272 1813 3026 2020 
Q 2781 2228 2272 2228 
L 1259 2228 
z
M 1259 4147 
L 1259 2741 
L 2194 2741 
Q 2656 2741 2882 2914 
Q 3109 3088 3109 3444 
Q 3109 3797 2882 3972 
Q 2656 4147 2194 4147 
L 1259 4147 
z
M 628 4666 
L 2241 4666 
Q 2963 4666 3353 4366 
Q 3744 4066 3744 3513 
Q 3744 3084 3544 2831 
Q 3344 2578 2956 2516 
Q 3422 2416 3680 2098 
Q 3938 1781 3938 1306 
Q 3938 681 3513 340 
Q 3088 0 2303 0 
L 628 0 
L 628 4666 
z
" transform="scale(0.015625)"/>
     </defs>
     <use xlink:href="#DejaVuSans-36"/>
     <use xlink:href="#DejaVuSans-57" transform="translate(63.484375 0)"/>
     <use xlink:href="#DejaVuSans-55" transform="translate(102.6875 0)"/>
     <use xlink:href="#DejaVuSans-44" transform="translate(143.796875 0)"/>
     <use xlink:href="#DejaVuSans-57" transform="translate(205.078125 0)"/>
     <use xlink:href="#DejaVuSans-58" transform="translate(244.28125 0)"/>
     <use xlink:href="#DejaVuSans-50" transform="translate(307.65625 0)"/>
     <use xlink:href="#DejaVuSans-3" transform="translate(405.0625 0)"/>
     <use xlink:href="#DejaVuSans-25" transform="translate(436.84375 0)"/>
     <use xlink:href="#DejaVuSans-3" transform="translate(505.453125 0)"/>
     <use xlink:href="#DejaVuSans-4c" transform="translate(537.234375 0)"/>
     <use xlink:href="#DejaVuSans-51" transform="translate(565.015625 0)"/>
     <use xlink:href="#DejaVuSans-59" transform="translate(628.390625 0)"/>
     <use xlink:href="#DejaVuSans-48" transform="translate(687.578125 0)"/>
     <use xlink:href="#DejaVuSans-55" transform="translate(749.109375 0)"/>
     <use xlink:href="#DejaVuSans-56" transform="translate(790.21875 0)"/>
     <use xlink:href="#DejaVuSans-4c" transform="translate(842.3125 0)"/>
     <use xlink:href="#DejaVuSans-52" transform="translate(870.09375 0)"/>
     <use xlink:href="#DejaVuSans-51" transform="translate(931.28125 0)"/>
     <use xlink:href="#DejaVuSans-3" transform="translate(994.65625 0)"/>
     <use xlink:href="#DejaVuSans-45" transform="translate(1026.4375 0)"/>
     <use xlink:href="#DejaVuSans-5c" transform="translate(1089.921875 0)"/>
     <use xlink:href="#DejaVuSans-3" transform="translate(1149.109375 0)"/>
     <use xlink:href="#DejaVuSans-26" transform="translate(1180.890625 0)"/>
     <use xlink:href="#DejaVuSans-38" transform="translate(1250.71875 0)"/>
     <use xlink:href="#DejaVuSans-24" transform="translate(1323.90625 0)"/>
     <use xlink:href="#DejaVuSans-27" transform="translate(1392.3125 0)"/>
     <use xlink:href="#DejaVuSans-3" transform="translate(1469.3125 0)"/>
     <use xlink:href="#DejaVuSans-46" transform="translate(1501.09375 0)"/>
     <use xlink:href="#DejaVuSans-44" transform="translate(1556.078125 0)"/>
     <use xlink:href="#DejaVuSans-57" transform="translate(1617.359375 0)"/>
     <use xlink:href="#DejaVuSans-48" transform="translate(1656.5625 0)"/>
     <use xlink:href="#DejaVuSans-4a" transform="translate(1718.09375 0)"/>
     <use xlink:href="#DejaVuSans-52" transform="translate(1781.578125 0)"/>
     <use xlink:href="#DejaVuSans-55" transform="translate(1842.765625 0)"/>
     <use xlink:href="#DejaVuSans-5c" transform="translate(1883.875 0)"/>
    </g>
   </g>
   <g id="legend_1">
    <g id="line2d_21">
     <path d="M 294.326451 313.918984 
L 302.326451 313.918984 
L 310.326451 313.918984 
" style="fill: none; stroke-dasharray: 3.7,1.6; stroke-dashoffset: 0; stroke: #808080"/>
    </g>
    <g id="text_20">
     <!-- Overall B (0.32) -->
     <g transform="translate(316.726451 316.718984) scale(0.08 -0.08)">
      <defs>
       <path id="DejaVuSans-b" d="M 1984 4856 
Q 1566 4138 1362 3434 
Q 1159 2731 1159 2009 
Q 1159 1288 1364 580 
Q 1569 -128 1984 -844 
L 1484 -844 
Q 1016 -109 783 600 
Q 550 1309 550 2009 
Q 550 2706 781 3412 
Q 1013 4119 1484 4856 
L 1984 4856 
z
" transform="scale(0.015625)"/>
       <path id="DejaVuSans-16" d="M 2597 2516 
Q 3050 2419 3304 2112 
Q 3559 1806 3559 1356 
Q 3559 666 3084 287 
Q 2609 -91 1734 -91 
Q 1441 -91 1130 -33 
Q 819 25 488 141 
L 488 750 
Q 750 597 1062 519 
Q 1375 441 1716 441 
Q 2309 441 2620 675 
Q 2931 909 2931 1356 
Q 2931 1769 2642 2001 
Q 2353 2234 1838 2234 
L 1294 2234 
L 1294 2753 
L 1863 2753 
Q 2328 2753 2575 2939 
Q 2822 3125 2822 3475 
Q 2822 3834 2567 4026 
Q 2313 4219 1838 4219 
Q 1578 4219 1281 4162 
Q 984 4106 628 3988 
L 628 4550 
Q 988 4650 1302 4700 
Q 1616 4750 1894 4750 
Q 2613 4750 3031 4423 
Q 3450 4097 3450 3541 
Q 3450 3153 3228 2886 
Q 3006 2619 2597 2516 
z
" transform="scale(0.015625)"/>
       <path id="DejaVuSans-c" d="M 513 4856 
L 1013 4856 
Q 1481 4119 1714 3412 
Q 1947 2706 1947 2009 
Q 1947 1309 1714 600 
Q 1481 -109 1013 -844 
L 513 -844 
Q 928 -128 1133 580 
Q 1338 1288 1338 2009 
Q 1338 2731 1133 3434 
Q 928 4138 513 4856 
z
" transform="scale(0.015625)"/>
      </defs>
      <use xlink:href="#DejaVuSans-32"/>
      <use xlink:href="#DejaVuSans-59" transform="translate(78.71875 0)"/>
      <use xlink:href="#DejaVuSans-48" transform="translate(137.90625 0)"/>
      <use xlink:href="#DejaVuSans-55" transform="translate(199.4375 0)"/>
      <use xlink:href="#DejaVuSans-44" transform="translate(240.546875 0)"/>
      <use xlink:href="#DejaVuSans-4f" transform="translate(301.828125 0)"/>
      <use xlink:href="#DejaVuSans-4f" transform="translate(329.609375 0)"/>
      <use xlink:href="#DejaVuSans-3" transform="translate(357.390625 0)"/>
      <use xlink:href="#DejaVuSans-25" transform="translate(389.171875 0)"/>
      <use xlink:href="#DejaVuSans-3" transform="translate(457.78125 0)"/>
      <use xlink:href="#DejaVuSans-b" transform="translate(489.5625 0)"/>
      <use xlink:href="#DejaVuSans-13" transform="translate(528.578125 0)"/>
      <use xlink:href="#DejaVuSans-11" transform="translate(592.203125 0)"/>
      <use xlink:href="#DejaVuSans-16" transform="translate(623.984375 0)"/>
      <use xlink:href="#DejaVuSans-15" transform="translate(687.609375 0)"/>
      <use xlink:href="#DejaVuSans-c" transform="translate(751.234375 0)"/>
     </g>
    </g>
   </g>
  </g>
  <g id="axes_2">
   <g id="patch_17">
    <path d="M 600.233594 325.840859 
L 777.206451 325.840859 
L 777.206451 21.558281 
L 600.233594 21.558281 
z
" style="fill: #ffffff"/>
   </g>
   <g id="patch_18">
    <path d="M 610.231157 312.009833 
L 692.151056 312.009833 
L 692.151056 293.255899 
L 610.231157 293.255899 
z
" clip-path="url(#p7a2d0b7ef5)" style="fill: #1a9850; opacity: 0.8"/>
   </g>
   <g id="patch_19">
    <path d="M 610.231157 288.567416 
L 686.648295 288.567416 
L 686.648295 269.813482 
L 610.231157 269.813482 
z
" clip-path="url(#p7a2d0b7ef5)" style="fill: #1a9850; opacity: 0.8"/>
   </g>
   <g id="patch_20">
    <path d="M 610.231157 265.124998 
L 670.192862 265.124998 
L 670.192862 246.371064 
L 610.231157 246.371064 
z
" clip-path="url(#p7a2d0b7ef5)" style="fill: #1a9850; opacity: 0.8"/>
   </g>
   <g id="patch_21">
    <path d="M 610.231157 241.682581 
L 608.277815 241.682581 
L 608.277815 222.928647 
L 610.231157 222.928647 
z
" clip-path="url(#p7a2d0b7ef5)" style="fill: #1a9850; opacity: 0.8"/>
   </g>
   <g id="patch_22">
    <path d="M 610.231157 218.240163 
L 749.865571 218.240163 
L 749.865571 199.486229 
L 610.231157 199.486229 
z
" clip-path="url(#p7a2d0b7ef5)" style="fill: #1a9850; opacity: 0.8"/>
   </g>
   <g id="patch_23">
    <path d="M 610.231157 194.797746 
L 754.926505 194.797746 
L 754.926505 176.043812 
L 610.231157 176.043812 
z
" clip-path="url(#p7a2d0b7ef5)" style="fill: #1a9850; opacity: 0.8"/>
   </g>
   <g id="patch_24">
    <path d="M 610.231157 171.355329 
L 758.448441 171.355329 
L 758.448441 152.601395 
L 610.231157 152.601395 
z
" clip-path="url(#p7a2d0b7ef5)" style="fill: #1a9850; opacity: 0.8"/>
   </g>
   <g id="patch_25">
    <path d="M 610.231157 147.912911 
L 762.384723 147.912911 
L 762.384723 129.158977 
L 610.231157 129.158977 
z
" clip-path="url(#p7a2d0b7ef5)" style="fill: #1a9850; opacity: 0.8"/>
   </g>
   <g id="patch_26">
    <path d="M 610.231157 124.470494 
L 762.769472 124.470494 
L 762.769472 105.71656 
L 610.231157 105.71656 
z
" clip-path="url(#p7a2d0b7ef5)" style="fill: #1a9850; opacity: 0.8"/>
   </g>
   <g id="patch_27">
    <path d="M 610.231157 101.028076 
L 763.183817 101.028076 
L 763.183817 82.274142 
L 610.231157 82.274142 
z
" clip-path="url(#p7a2d0b7ef5)" style="fill: #1a9850; opacity: 0.8"/>
   </g>
   <g id="patch_28">
    <path d="M 610.231157 77.585659 
L 765.788274 77.585659 
L 765.788274 58.831725 
L 610.231157 58.831725 
z
" clip-path="url(#p7a2d0b7ef5)" style="fill: #1a9850; opacity: 0.8"/>
   </g>
   <g id="patch_29">
    <path d="M 610.231157 54.143241 
L 769.16223 54.143241 
L 769.16223 35.389308 
L 610.231157 35.389308 
z
" clip-path="url(#p7a2d0b7ef5)" style="fill: #1a9850; opacity: 0.8"/>
   </g>
   <g id="matplotlib.axis_3">
    <g id="xtick_6">
     <g id="line2d_22">
      <g>
       <use xlink:href="#maa0d6a164a" x="610.231157" y="325.840859" style="stroke: #000000; stroke-width: 0.8"/>
      </g>
     </g>
     <g id="text_21">
      <!-- 0 -->
      <g transform="translate(606.731782 341.198281) scale(0.11 -0.11)">
       <use xlink:href="#DejaVuSans-13"/>
      </g>
     </g>
    </g>
    <g id="xtick_7">
     <g id="line2d_23">
      <g>
       <use xlink:href="#maa0d6a164a" x="663.504143" y="325.840859" style="stroke: #000000; stroke-width: 0.8"/>
      </g>
     </g>
     <g id="text_22">
      <!-- 1 -->
      <g transform="translate(660.004768 341.198281) scale(0.11 -0.11)">
       <defs>
        <path id="DejaVuSans-14" d="M 794 531 
L 1825 531 
L 1825 4091 
L 703 3866 
L 703 4441 
L 1819 4666 
L 2450 4666 
L 2450 531 
L 3481 531 
L 3481 0 
L 794 0 
L 794 531 
z
" transform="scale(0.015625)"/>
       </defs>
       <use xlink:href="#DejaVuSans-14"/>
      </g>
     </g>
    </g>
    <g id="xtick_8">
     <g id="line2d_24">
      <g>
       <use xlink:href="#maa0d6a164a" x="716.777128" y="325.840859" style="stroke: #000000; stroke-width: 0.8"/>
      </g>
     </g>
     <g id="text_23">
      <!-- 2 -->
      <g transform="translate(713.277753 341.198281) scale(0.11 -0.11)">
       <use xlink:href="#DejaVuSans-15"/>
      </g>
     </g>
    </g>
    <g id="xtick_9">
     <g id="line2d_25">
      <g>
       <use xlink:href="#maa0d6a164a" x="770.050113" y="325.840859" style="stroke: #000000; stroke-width: 0.8"/>
      </g>
     </g>
     <g id="text_24">
      <!-- 3 -->
      <g transform="translate(766.550738 341.198281) scale(0.11 -0.11)">
       <use xlink:href="#DejaVuSans-16"/>
      </g>
     </g>
    </g>
    <g id="text_25">
     <!-- Mean Score(gold) − Score(neg) ± s.e. -->
     <g transform="translate(593.883304 355.439297) scale(0.1 -0.1)">
      <defs>
       <path id="DejaVuSans-30" d="M 628 4666 
L 1569 4666 
L 2759 1491 
L 3956 4666 
L 4897 4666 
L 4897 0 
L 4281 0 
L 4281 4097 
L 3078 897 
L 2444 897 
L 1241 4097 
L 1241 0 
L 628 0 
L 628 4666 
z
" transform="scale(0.015625)"/>
       <path id="DejaVuSans-c9c" d="M 678 2272 
L 4684 2272 
L 4684 1741 
L 678 1741 
L 678 2272 
z
" transform="scale(0.015625)"/>
      </defs>
      <use xlink:href="#DejaVuSans-30"/>
      <use xlink:href="#DejaVuSans-48" transform="translate(86.28125 0)"/>
      <use xlink:href="#DejaVuSans-44" transform="translate(147.8125 0)"/>
      <use xlink:href="#DejaVuSans-51" transform="translate(209.09375 0)"/>
      <use xlink:href="#DejaVuSans-3" transform="translate(272.46875 0)"/>
      <use xlink:href="#DejaVuSans-36" transform="translate(304.25 0)"/>
      <use xlink:href="#DejaVuSans-46" transform="translate(367.734375 0)"/>
      <use xlink:href="#DejaVuSans-52" transform="translate(422.71875 0)"/>
      <use xlink:href="#DejaVuSans-55" transform="translate(483.90625 0)"/>
      <use xlink:href="#DejaVuSans-48" transform="translate(522.8125 0)"/>
      <use xlink:href="#DejaVuSans-b" transform="translate(584.34375 0)"/>
      <use xlink:href="#DejaVuSans-4a" transform="translate(623.359375 0)"/>
      <use xlink:href="#DejaVuSans-52" transform="translate(686.84375 0)"/>
      <use xlink:href="#DejaVuSans-4f" transform="translate(748.03125 0)"/>
      <use xlink:href="#DejaVuSans-47" transform="translate(775.8125 0)"/>
      <use xlink:href="#DejaVuSans-c" transform="translate(839.296875 0)"/>
      <use xlink:href="#DejaVuSans-3" transform="translate(878.3125 0)"/>
      <use xlink:href="#DejaVuSans-c9c" transform="translate(910.09375 0)"/>
      <use xlink:href="#DejaVuSans-3" transform="translate(993.890625 0)"/>
      <use xlink:href="#DejaVuSans-36" transform="translate(1025.671875 0)"/>
      <use xlink:href="#DejaVuSans-46" transform="translate(1089.15625 0)"/>
      <use xlink:href="#DejaVuSans-52" transform="translate(1144.140625 0)"/>
      <use xlink:href="#DejaVuSans-55" transform="translate(1205.328125 0)"/>
      <use xlink:href="#DejaVuSans-48" transform="translate(1244.234375 0)"/>
      <use xlink:href="#DejaVuSans-b" transform="translate(1305.765625 0)"/>
      <use xlink:href="#DejaVuSans-51" transform="translate(1344.78125 0)"/>
      <use xlink:href="#DejaVuSans-48" transform="translate(1408.15625 0)"/>
      <use xlink:href="#DejaVuSans-4a" transform="translate(1469.6875 0)"/>
      <use xlink:href="#DejaVuSans-c" transform="translate(1533.171875 0)"/>
      <use xlink:href="#DejaVuSans-3" transform="translate(1572.1875 0)"/>
      <use xlink:href="#DejaVuSans-73" transform="translate(1603.96875 0)"/>
      <use xlink:href="#DejaVuSans-3" transform="translate(1687.765625 0)"/>
      <use xlink:href="#DejaVuSans-56" transform="translate(1719.546875 0)"/>
      <use xlink:href="#DejaVuSans-11" transform="translate(1771.640625 0)"/>
      <use xlink:href="#DejaVuSans-48" transform="translate(1803.421875 0)"/>
      <use xlink:href="#DejaVuSans-11" transform="translate(1864.953125 0)"/>
     </g>
    </g>
   </g>
   <g id="matplotlib.axis_4">
    <g id="ytick_13">
     <g id="line2d_26">
      <g>
       <use xlink:href="#m98b98efbb1" x="600.233594" y="302.632866" style="stroke: #000000; stroke-width: 0.8"/>
      </g>
     </g>
     <g id="text_26">
      <!-- Parties -->
      <g transform="translate(555.964219 306.812007) scale(0.11 -0.11)">
       <use xlink:href="#DejaVuSans-33"/>
       <use xlink:href="#DejaVuSans-44" transform="translate(55.8125 0)"/>
       <use xlink:href="#DejaVuSans-55" transform="translate(117.09375 0)"/>
       <use xlink:href="#DejaVuSans-57" transform="translate(158.203125 0)"/>
       <use xlink:href="#DejaVuSans-4c" transform="translate(197.40625 0)"/>
       <use xlink:href="#DejaVuSans-48" transform="translate(225.1875 0)"/>
       <use xlink:href="#DejaVuSans-56" transform="translate(286.71875 0)"/>
      </g>
     </g>
    </g>
    <g id="ytick_14">
     <g id="line2d_27">
      <g>
       <use xlink:href="#m98b98efbb1" x="600.233594" y="279.190449" style="stroke: #000000; stroke-width: 0.8"/>
      </g>
     </g>
     <g id="text_27">
      <!-- Affiliate License-Licensee -->
      <g transform="translate(453.963281 283.369589) scale(0.11 -0.11)">
       <use xlink:href="#DejaVuSans-24"/>
       <use xlink:href="#DejaVuSans-13b1" transform="translate(68.40625 0)"/>
       <use xlink:href="#DejaVuSans-4f" transform="translate(165.09375 0)"/>
       <use xlink:href="#DejaVuSans-4c" transform="translate(192.875 0)"/>
       <use xlink:href="#DejaVuSans-44" transform="translate(220.65625 0)"/>
       <use xlink:href="#DejaVuSans-57" transform="translate(281.9375 0)"/>
       <use xlink:href="#DejaVuSans-48" transform="translate(321.140625 0)"/>
       <use xlink:href="#DejaVuSans-3" transform="translate(382.671875 0)"/>
       <use xlink:href="#DejaVuSans-2f" transform="translate(414.453125 0)"/>
       <use xlink:href="#DejaVuSans-4c" transform="translate(470.171875 0)"/>
       <use xlink:href="#DejaVuSans-46" transform="translate(497.953125 0)"/>
       <use xlink:href="#DejaVuSans-48" transform="translate(552.9375 0)"/>
       <use xlink:href="#DejaVuSans-51" transform="translate(614.46875 0)"/>
       <use xlink:href="#DejaVuSans-56" transform="translate(677.84375 0)"/>
       <use xlink:href="#DejaVuSans-48" transform="translate(729.9375 0)"/>
       <use xlink:href="#DejaVuSans-10" transform="translate(791.46875 0)"/>
       <use xlink:href="#DejaVuSans-2f" transform="translate(827.546875 0)"/>
       <use xlink:href="#DejaVuSans-4c" transform="translate(883.265625 0)"/>
       <use xlink:href="#DejaVuSans-46" transform="translate(911.046875 0)"/>
       <use xlink:href="#DejaVuSans-48" transform="translate(966.03125 0)"/>
       <use xlink:href="#DejaVuSans-51" transform="translate(1027.5625 0)"/>
       <use xlink:href="#DejaVuSans-56" transform="translate(1090.9375 0)"/>
       <use xlink:href="#DejaVuSans-48" transform="translate(1143.03125 0)"/>
       <use xlink:href="#DejaVuSans-48" transform="translate(1204.5625 0)"/>
      </g>
     </g>
    </g>
    <g id="ytick_15">
     <g id="line2d_28">
      <g>
       <use xlink:href="#m98b98efbb1" x="600.233594" y="255.748031" style="stroke: #000000; stroke-width: 0.8"/>
      </g>
     </g>
     <g id="text_28">
      <!-- Post-Termination Services -->
      <g transform="translate(452.875312 259.927172) scale(0.11 -0.11)">
       <use xlink:href="#DejaVuSans-33"/>
       <use xlink:href="#DejaVuSans-52" transform="translate(56.734375 0)"/>
       <use xlink:href="#DejaVuSans-56" transform="translate(117.921875 0)"/>
       <use xlink:href="#DejaVuSans-57" transform="translate(170.015625 0)"/>
       <use xlink:href="#DejaVuSans-10" transform="translate(209.21875 0)"/>
       <use xlink:href="#DejaVuSans-37" transform="translate(236.125 0)"/>
       <use xlink:href="#DejaVuSans-48" transform="translate(280.21875 0)"/>
       <use xlink:href="#DejaVuSans-55" transform="translate(341.75 0)"/>
       <use xlink:href="#DejaVuSans-50" transform="translate(381.109375 0)"/>
       <use xlink:href="#DejaVuSans-4c" transform="translate(478.515625 0)"/>
       <use xlink:href="#DejaVuSans-51" transform="translate(506.296875 0)"/>
       <use xlink:href="#DejaVuSans-44" transform="translate(569.671875 0)"/>
       <use xlink:href="#DejaVuSans-57" transform="translate(630.953125 0)"/>
       <use xlink:href="#DejaVuSans-4c" transform="translate(670.15625 0)"/>
       <use xlink:href="#DejaVuSans-52" transform="translate(697.9375 0)"/>
       <use xlink:href="#DejaVuSans-51" transform="translate(759.125 0)"/>
       <use xlink:href="#DejaVuSans-3" transform="translate(822.5 0)"/>
       <use xlink:href="#DejaVuSans-36" transform="translate(854.28125 0)"/>
       <use xlink:href="#DejaVuSans-48" transform="translate(917.765625 0)"/>
       <use xlink:href="#DejaVuSans-55" transform="translate(979.296875 0)"/>
       <use xlink:href="#DejaVuSans-59" transform="translate(1020.40625 0)"/>
       <use xlink:href="#DejaVuSans-4c" transform="translate(1079.59375 0)"/>
       <use xlink:href="#DejaVuSans-46" transform="translate(1107.375 0)"/>
       <use xlink:href="#DejaVuSans-48" transform="translate(1162.359375 0)"/>
       <use xlink:href="#DejaVuSans-56" transform="translate(1223.890625 0)"/>
      </g>
     </g>
    </g>
    <g id="ytick_16">
     <g id="line2d_29">
      <g>
       <use xlink:href="#m98b98efbb1" x="600.233594" y="232.305614" style="stroke: #000000; stroke-width: 0.8"/>
      </g>
     </g>
     <g id="text_29">
      <!-- Volume Restriction -->
      <g transform="translate(490.16875 236.484754) scale(0.11 -0.11)">
       <defs>
        <path id="DejaVuSans-39" d="M 1831 0 
L 50 4666 
L 709 4666 
L 2188 738 
L 3669 4666 
L 4325 4666 
L 2547 0 
L 1831 0 
z
" transform="scale(0.015625)"/>
       </defs>
       <use xlink:href="#DejaVuSans-39"/>
       <use xlink:href="#DejaVuSans-52" transform="translate(60.640625 0)"/>
       <use xlink:href="#DejaVuSans-4f" transform="translate(121.828125 0)"/>
       <use xlink:href="#DejaVuSans-58" transform="translate(149.609375 0)"/>
       <use xlink:href="#DejaVuSans-50" transform="translate(212.984375 0)"/>
       <use xlink:href="#DejaVuSans-48" transform="translate(310.390625 0)"/>
       <use xlink:href="#DejaVuSans-3" transform="translate(371.921875 0)"/>
       <use xlink:href="#DejaVuSans-35" transform="translate(403.703125 0)"/>
       <use xlink:href="#DejaVuSans-48" transform="translate(468.703125 0)"/>
       <use xlink:href="#DejaVuSans-56" transform="translate(530.234375 0)"/>
       <use xlink:href="#DejaVuSans-57" transform="translate(582.328125 0)"/>
       <use xlink:href="#DejaVuSans-55" transform="translate(621.53125 0)"/>
       <use xlink:href="#DejaVuSans-4c" transform="translate(662.640625 0)"/>
       <use xlink:href="#DejaVuSans-46" transform="translate(690.421875 0)"/>
       <use xlink:href="#DejaVuSans-57" transform="translate(745.40625 0)"/>
       <use xlink:href="#DejaVuSans-4c" transform="translate(784.609375 0)"/>
       <use xlink:href="#DejaVuSans-52" transform="translate(812.390625 0)"/>
       <use xlink:href="#DejaVuSans-51" transform="translate(873.578125 0)"/>
      </g>
     </g>
    </g>
    <g id="ytick_17">
     <g id="line2d_30">
      <g>
       <use xlink:href="#m98b98efbb1" x="600.233594" y="208.863196" style="stroke: #000000; stroke-width: 0.8"/>
      </g>
     </g>
     <g id="text_30">
      <!-- Warranty Duration -->
      <g transform="translate(491.662344 213.042337) scale(0.11 -0.11)">
       <defs>
        <path id="DejaVuSans-3a" d="M 213 4666 
L 850 4666 
L 1831 722 
L 2809 4666 
L 3519 4666 
L 4500 722 
L 5478 4666 
L 6119 4666 
L 4947 0 
L 4153 0 
L 3169 4050 
L 2175 0 
L 1381 0 
L 213 4666 
z
" transform="scale(0.015625)"/>
       </defs>
       <use xlink:href="#DejaVuSans-3a"/>
       <use xlink:href="#DejaVuSans-44" transform="translate(92.484375 0)"/>
       <use xlink:href="#DejaVuSans-55" transform="translate(153.765625 0)"/>
       <use xlink:href="#DejaVuSans-55" transform="translate(193.125 0)"/>
       <use xlink:href="#DejaVuSans-44" transform="translate(234.234375 0)"/>
       <use xlink:href="#DejaVuSans-51" transform="translate(295.515625 0)"/>
       <use xlink:href="#DejaVuSans-57" transform="translate(358.890625 0)"/>
       <use xlink:href="#DejaVuSans-5c" transform="translate(398.09375 0)"/>
       <use xlink:href="#DejaVuSans-3" transform="translate(457.28125 0)"/>
       <use xlink:href="#DejaVuSans-27" transform="translate(489.0625 0)"/>
       <use xlink:href="#DejaVuSans-58" transform="translate(566.0625 0)"/>
       <use xlink:href="#DejaVuSans-55" transform="translate(629.4375 0)"/>
       <use xlink:href="#DejaVuSans-44" transform="translate(670.546875 0)"/>
       <use xlink:href="#DejaVuSans-57" transform="translate(731.828125 0)"/>
       <use xlink:href="#DejaVuSans-4c" transform="translate(771.03125 0)"/>
       <use xlink:href="#DejaVuSans-52" transform="translate(798.8125 0)"/>
       <use xlink:href="#DejaVuSans-51" transform="translate(860 0)"/>
      </g>
     </g>
    </g>
    <g id="ytick_18">
     <g id="line2d_31">
      <g>
       <use xlink:href="#m98b98efbb1" x="600.233594" y="185.420779" style="stroke: #000000; stroke-width: 0.8"/>
      </g>
     </g>
     <g id="text_31">
      <!-- Covenant Not To Sue -->
      <g transform="translate(478.482969 189.59949) scale(0.11 -0.11)">
       <use xlink:href="#DejaVuSans-26"/>
       <use xlink:href="#DejaVuSans-52" transform="translate(69.828125 0)"/>
       <use xlink:href="#DejaVuSans-59" transform="translate(131.015625 0)"/>
       <use xlink:href="#DejaVuSans-48" transform="translate(190.203125 0)"/>
       <use xlink:href="#DejaVuSans-51" transform="translate(251.734375 0)"/>
       <use xlink:href="#DejaVuSans-44" transform="translate(315.109375 0)"/>
       <use xlink:href="#DejaVuSans-51" transform="translate(376.390625 0)"/>
       <use xlink:href="#DejaVuSans-57" transform="translate(439.765625 0)"/>
       <use xlink:href="#DejaVuSans-3" transform="translate(478.96875 0)"/>
       <use xlink:href="#DejaVuSans-31" transform="translate(510.75 0)"/>
       <use xlink:href="#DejaVuSans-52" transform="translate(585.5625 0)"/>
       <use xlink:href="#DejaVuSans-57" transform="translate(646.75 0)"/>
       <use xlink:href="#DejaVuSans-3" transform="translate(685.953125 0)"/>
       <use xlink:href="#DejaVuSans-37" transform="translate(717.734375 0)"/>
       <use xlink:href="#DejaVuSans-52" transform="translate(761.828125 0)"/>
       <use xlink:href="#DejaVuSans-3" transform="translate(823.015625 0)"/>
       <use xlink:href="#DejaVuSans-36" transform="translate(854.796875 0)"/>
       <use xlink:href="#DejaVuSans-58" transform="translate(918.28125 0)"/>
       <use xlink:href="#DejaVuSans-48" transform="translate(981.65625 0)"/>
      </g>
     </g>
    </g>
    <g id="ytick_19">
     <g id="line2d_32">
      <g>
       <use xlink:href="#m98b98efbb1" x="600.233594" y="161.978362" style="stroke: #000000; stroke-width: 0.8"/>
      </g>
     </g>
     <g id="text_32">
      <!-- Liquidated Damages -->
      <g transform="translate(479.605312 166.157502) scale(0.11 -0.11)">
       <defs>
        <path id="DejaVuSans-54" d="M 947 1747 
Q 947 1113 1208 752 
Q 1469 391 1925 391 
Q 2381 391 2643 752 
Q 2906 1113 2906 1747 
Q 2906 2381 2643 2742 
Q 2381 3103 1925 3103 
Q 1469 3103 1208 2742 
Q 947 2381 947 1747 
z
M 2906 525 
Q 2725 213 2448 61 
Q 2172 -91 1784 -91 
Q 1150 -91 751 415 
Q 353 922 353 1747 
Q 353 2572 751 3078 
Q 1150 3584 1784 3584 
Q 2172 3584 2448 3432 
Q 2725 3281 2906 2969 
L 2906 3500 
L 3481 3500 
L 3481 -1331 
L 2906 -1331 
L 2906 525 
z
" transform="scale(0.015625)"/>
       </defs>
       <use xlink:href="#DejaVuSans-2f"/>
       <use xlink:href="#DejaVuSans-4c" transform="translate(55.71875 0)"/>
       <use xlink:href="#DejaVuSans-54" transform="translate(83.5 0)"/>
       <use xlink:href="#DejaVuSans-58" transform="translate(146.984375 0)"/>
       <use xlink:href="#DejaVuSans-4c" transform="translate(210.359375 0)"/>
       <use xlink:href="#DejaVuSans-47" transform="translate(238.140625 0)"/>
       <use xlink:href="#DejaVuSans-44" transform="translate(301.625 0)"/>
       <use xlink:href="#DejaVuSans-57" transform="translate(362.90625 0)"/>
       <use xlink:href="#DejaVuSans-48" transform="translate(402.109375 0)"/>
       <use xlink:href="#DejaVuSans-47" transform="translate(463.640625 0)"/>
       <use xlink:href="#DejaVuSans-3" transform="translate(527.125 0)"/>
       <use xlink:href="#DejaVuSans-27" transform="translate(558.90625 0)"/>
       <use xlink:href="#DejaVuSans-44" transform="translate(635.90625 0)"/>
       <use xlink:href="#DejaVuSans-50" transform="translate(697.1875 0)"/>
       <use xlink:href="#DejaVuSans-44" transform="translate(794.59375 0)"/>
       <use xlink:href="#DejaVuSans-4a" transform="translate(855.875 0)"/>
       <use xlink:href="#DejaVuSans-48" transform="translate(919.359375 0)"/>
       <use xlink:href="#DejaVuSans-56" transform="translate(980.890625 0)"/>
      </g>
     </g>
    </g>
    <g id="ytick_20">
     <g id="line2d_33">
      <g>
       <use xlink:href="#m98b98efbb1" x="600.233594" y="138.535944" style="stroke: #000000; stroke-width: 0.8"/>
      </g>
     </g>
     <g id="text_33">
      <!-- Renewal Term -->
      <g transform="translate(516.62375 142.715085) scale(0.11 -0.11)">
       <use xlink:href="#DejaVuSans-35"/>
       <use xlink:href="#DejaVuSans-48" transform="translate(65 0)"/>
       <use xlink:href="#DejaVuSans-51" transform="translate(126.53125 0)"/>
       <use xlink:href="#DejaVuSans-48" transform="translate(189.90625 0)"/>
       <use xlink:href="#DejaVuSans-5a" transform="translate(251.4375 0)"/>
       <use xlink:href="#DejaVuSans-44" transform="translate(333.21875 0)"/>
       <use xlink:href="#DejaVuSans-4f" transform="translate(394.5 0)"/>
       <use xlink:href="#DejaVuSans-3" transform="translate(422.28125 0)"/>
       <use xlink:href="#DejaVuSans-37" transform="translate(454.0625 0)"/>
       <use xlink:href="#DejaVuSans-48" transform="translate(498.15625 0)"/>
       <use xlink:href="#DejaVuSans-55" transform="translate(559.6875 0)"/>
       <use xlink:href="#DejaVuSans-50" transform="translate(599.046875 0)"/>
      </g>
     </g>
    </g>
    <g id="ytick_21">
     <g id="line2d_34">
      <g>
       <use xlink:href="#m98b98efbb1" x="600.233594" y="115.093527" style="stroke: #000000; stroke-width: 0.8"/>
      </g>
     </g>
     <g id="text_34">
      <!-- Insurance -->
      <g transform="translate(539.264844 119.272238) scale(0.11 -0.11)">
       <use xlink:href="#DejaVuSans-2c"/>
       <use xlink:href="#DejaVuSans-51" transform="translate(29.5 0)"/>
       <use xlink:href="#DejaVuSans-56" transform="translate(92.875 0)"/>
       <use xlink:href="#DejaVuSans-58" transform="translate(144.96875 0)"/>
       <use xlink:href="#DejaVuSans-55" transform="translate(208.34375 0)"/>
       <use xlink:href="#DejaVuSans-44" transform="translate(249.453125 0)"/>
       <use xlink:href="#DejaVuSans-51" transform="translate(310.734375 0)"/>
       <use xlink:href="#DejaVuSans-46" transform="translate(374.109375 0)"/>
       <use xlink:href="#DejaVuSans-48" transform="translate(429.09375 0)"/>
      </g>
     </g>
    </g>
    <g id="ytick_22">
     <g id="line2d_35">
      <g>
       <use xlink:href="#m98b98efbb1" x="600.233594" y="91.651109" style="stroke: #000000; stroke-width: 0.8"/>
      </g>
     </g>
     <g id="text_35">
      <!-- Governing Law -->
      <g transform="translate(511.0275 95.83025) scale(0.11 -0.11)">
       <use xlink:href="#DejaVuSans-2a"/>
       <use xlink:href="#DejaVuSans-52" transform="translate(77.484375 0)"/>
       <use xlink:href="#DejaVuSans-59" transform="translate(138.671875 0)"/>
       <use xlink:href="#DejaVuSans-48" transform="translate(197.859375 0)"/>
       <use xlink:href="#DejaVuSans-55" transform="translate(259.390625 0)"/>
       <use xlink:href="#DejaVuSans-51" transform="translate(298.75 0)"/>
       <use xlink:href="#DejaVuSans-4c" transform="translate(362.125 0)"/>
       <use xlink:href="#DejaVuSans-51" transform="translate(389.90625 0)"/>
       <use xlink:href="#DejaVuSans-4a" transform="translate(453.28125 0)"/>
       <use xlink:href="#DejaVuSans-3" transform="translate(516.765625 0)"/>
       <use xlink:href="#DejaVuSans-2f" transform="translate(548.546875 0)"/>
       <use xlink:href="#DejaVuSans-44" transform="translate(604.265625 0)"/>
       <use xlink:href="#DejaVuSans-5a" transform="translate(665.546875 0)"/>
      </g>
     </g>
    </g>
    <g id="ytick_23">
     <g id="line2d_36">
      <g>
       <use xlink:href="#m98b98efbb1" x="600.233594" y="68.208692" style="stroke: #000000; stroke-width: 0.8"/>
      </g>
     </g>
     <g id="text_36">
      <!-- No-Solicit Of Employees -->
      <g transform="translate(461.121875 72.387833) scale(0.11 -0.11)">
       <use xlink:href="#DejaVuSans-31"/>
       <use xlink:href="#DejaVuSans-52" transform="translate(74.8125 0)"/>
       <use xlink:href="#DejaVuSans-10" transform="translate(137.859375 0)"/>
       <use xlink:href="#DejaVuSans-36" transform="translate(173.9375 0)"/>
       <use xlink:href="#DejaVuSans-52" transform="translate(237.421875 0)"/>
       <use xlink:href="#DejaVuSans-4f" transform="translate(298.609375 0)"/>
       <use xlink:href="#DejaVuSans-4c" transform="translate(326.390625 0)"/>
       <use xlink:href="#DejaVuSans-46" transform="translate(354.171875 0)"/>
       <use xlink:href="#DejaVuSans-4c" transform="translate(409.15625 0)"/>
       <use xlink:href="#DejaVuSans-57" transform="translate(436.9375 0)"/>
       <use xlink:href="#DejaVuSans-3" transform="translate(476.140625 0)"/>
       <use xlink:href="#DejaVuSans-32" transform="translate(507.921875 0)"/>
       <use xlink:href="#DejaVuSans-49" transform="translate(586.640625 0)"/>
       <use xlink:href="#DejaVuSans-3" transform="translate(621.84375 0)"/>
       <use xlink:href="#DejaVuSans-28" transform="translate(653.625 0)"/>
       <use xlink:href="#DejaVuSans-50" transform="translate(716.8125 0)"/>
       <use xlink:href="#DejaVuSans-53" transform="translate(814.21875 0)"/>
       <use xlink:href="#DejaVuSans-4f" transform="translate(877.703125 0)"/>
       <use xlink:href="#DejaVuSans-52" transform="translate(905.484375 0)"/>
       <use xlink:href="#DejaVuSans-5c" transform="translate(966.671875 0)"/>
       <use xlink:href="#DejaVuSans-48" transform="translate(1025.859375 0)"/>
       <use xlink:href="#DejaVuSans-48" transform="translate(1087.390625 0)"/>
       <use xlink:href="#DejaVuSans-56" transform="translate(1148.921875 0)"/>
      </g>
     </g>
    </g>
    <g id="ytick_24">
     <g id="line2d_37">
      <g>
       <use xlink:href="#m98b98efbb1" x="600.233594" y="44.766274" style="stroke: #000000; stroke-width: 0.8"/>
      </g>
     </g>
     <g id="text_37">
      <!-- Notice Period To Terminate Renewal -->
      <g transform="translate(397.26 48.945415) scale(0.11 -0.11)">
       <use xlink:href="#DejaVuSans-31"/>
       <use xlink:href="#DejaVuSans-52" transform="translate(74.8125 0)"/>
       <use xlink:href="#DejaVuSans-57" transform="translate(136 0)"/>
       <use xlink:href="#DejaVuSans-4c" transform="translate(175.203125 0)"/>
       <use xlink:href="#DejaVuSans-46" transform="translate(202.984375 0)"/>
       <use xlink:href="#DejaVuSans-48" transform="translate(257.96875 0)"/>
       <use xlink:href="#DejaVuSans-3" transform="translate(319.5 0)"/>
       <use xlink:href="#DejaVuSans-33" transform="translate(351.28125 0)"/>
       <use xlink:href="#DejaVuSans-48" transform="translate(408.015625 0)"/>
       <use xlink:href="#DejaVuSans-55" transform="translate(469.546875 0)"/>
       <use xlink:href="#DejaVuSans-4c" transform="translate(510.65625 0)"/>
       <use xlink:href="#DejaVuSans-52" transform="translate(538.4375 0)"/>
       <use xlink:href="#DejaVuSans-47" transform="translate(599.625 0)"/>
       <use xlink:href="#DejaVuSans-3" transform="translate(663.109375 0)"/>
       <use xlink:href="#DejaVuSans-37" transform="translate(694.890625 0)"/>
       <use xlink:href="#DejaVuSans-52" transform="translate(738.984375 0)"/>
       <use xlink:href="#DejaVuSans-3" transform="translate(800.171875 0)"/>
       <use xlink:href="#DejaVuSans-37" transform="translate(831.953125 0)"/>
       <use xlink:href="#DejaVuSans-48" transform="translate(876.046875 0)"/>
       <use xlink:href="#DejaVuSans-55" transform="translate(937.578125 0)"/>
       <use xlink:href="#DejaVuSans-50" transform="translate(976.9375 0)"/>
       <use xlink:href="#DejaVuSans-4c" transform="translate(1074.34375 0)"/>
       <use xlink:href="#DejaVuSans-51" transform="translate(1102.125 0)"/>
       <use xlink:href="#DejaVuSans-44" transform="translate(1165.5 0)"/>
       <use xlink:href="#DejaVuSans-57" transform="translate(1226.78125 0)"/>
       <use xlink:href="#DejaVuSans-48" transform="translate(1265.984375 0)"/>
       <use xlink:href="#DejaVuSans-3" transform="translate(1327.515625 0)"/>
       <use xlink:href="#DejaVuSans-35" transform="translate(1359.296875 0)"/>
       <use xlink:href="#DejaVuSans-48" transform="translate(1424.296875 0)"/>
       <use xlink:href="#DejaVuSans-51" transform="translate(1485.828125 0)"/>
       <use xlink:href="#DejaVuSans-48" transform="translate(1549.203125 0)"/>
       <use xlink:href="#DejaVuSans-5a" transform="translate(1610.734375 0)"/>
       <use xlink:href="#DejaVuSans-44" transform="translate(1692.515625 0)"/>
       <use xlink:href="#DejaVuSans-4f" transform="translate(1753.796875 0)"/>
      </g>
     </g>
    </g>
   </g>
   <g id="LineCollection_2">
    <path d="M 685.397312 302.632866 
L 698.904801 302.632866 
" clip-path="url(#p7a2d0b7ef5)" style="fill: none; stroke: #000000; stroke-width: 1.5"/>
    <path d="M 686.648295 279.190449 
L 686.648295 279.190449 
" clip-path="url(#p7a2d0b7ef5)" style="fill: none; stroke: #000000; stroke-width: 1.5"/>
    <path d="M 670.192862 255.748031 
L 670.192862 255.748031 
" clip-path="url(#p7a2d0b7ef5)" style="fill: none; stroke: #000000; stroke-width: 1.5"/>
    <path d="M 608.277815 232.305614 
L 608.277815 232.305614 
" clip-path="url(#p7a2d0b7ef5)" style="fill: none; stroke: #000000; stroke-width: 1.5"/>
    <path d="M 749.865571 208.863196 
L 749.865571 208.863196 
" clip-path="url(#p7a2d0b7ef5)" style="fill: none; stroke: #000000; stroke-width: 1.5"/>
    <path d="M 752.765989 185.420779 
L 757.08702 185.420779 
" clip-path="url(#p7a2d0b7ef5)" style="fill: none; stroke: #000000; stroke-width: 1.5"/>
    <path d="M 758.448441 161.978362 
L 758.448441 161.978362 
" clip-path="url(#p7a2d0b7ef5)" style="fill: none; stroke: #000000; stroke-width: 1.5"/>
    <path d="M 756.330143 138.535944 
L 768.439302 138.535944 
" clip-path="url(#p7a2d0b7ef5)" style="fill: none; stroke: #000000; stroke-width: 1.5"/>
    <path d="M 762.769472 115.093527 
L 762.769472 115.093527 
" clip-path="url(#p7a2d0b7ef5)" style="fill: none; stroke: #000000; stroke-width: 1.5"/>
    <path d="M 759.988443 91.651109 
L 766.379191 91.651109 
" clip-path="url(#p7a2d0b7ef5)" style="fill: none; stroke: #000000; stroke-width: 1.5"/>
    <path d="M 765.788274 68.208692 
L 765.788274 68.208692 
" clip-path="url(#p7a2d0b7ef5)" style="fill: none; stroke: #000000; stroke-width: 1.5"/>
    <path d="M 769.16223 44.766274 
L 769.16223 44.766274 
" clip-path="url(#p7a2d0b7ef5)" style="fill: none; stroke: #000000; stroke-width: 1.5"/>
   </g>
   <g id="line2d_38">
    <g clip-path="url(#p7a2d0b7ef5)">
     <use xlink:href="#mf05476bb33" x="685.397312" y="302.632866" style="fill: #1f77b4; stroke: #000000"/>
     <use xlink:href="#mf05476bb33" x="686.648295" y="279.190449" style="fill: #1f77b4; stroke: #000000"/>
     <use xlink:href="#mf05476bb33" x="670.192862" y="255.748031" style="fill: #1f77b4; stroke: #000000"/>
     <use xlink:href="#mf05476bb33" x="608.277815" y="232.305614" style="fill: #1f77b4; stroke: #000000"/>
     <use xlink:href="#mf05476bb33" x="749.865571" y="208.863196" style="fill: #1f77b4; stroke: #000000"/>
     <use xlink:href="#mf05476bb33" x="752.765989" y="185.420779" style="fill: #1f77b4; stroke: #000000"/>
     <use xlink:href="#mf05476bb33" x="758.448441" y="161.978362" style="fill: #1f77b4; stroke: #000000"/>
     <use xlink:href="#mf05476bb33" x="756.330143" y="138.535944" style="fill: #1f77b4; stroke: #000000"/>
     <use xlink:href="#mf05476bb33" x="762.769472" y="115.093527" style="fill: #1f77b4; stroke: #000000"/>
     <use xlink:href="#mf05476bb33" x="759.988443" y="91.651109" style="fill: #1f77b4; stroke: #000000"/>
     <use xlink:href="#mf05476bb33" x="765.788274" y="68.208692" style="fill: #1f77b4; stroke: #000000"/>
     <use xlink:href="#mf05476bb33" x="769.16223" y="44.766274" style="fill: #1f77b4; stroke: #000000"/>
    </g>
   </g>
   <g id="line2d_39">
    <g clip-path="url(#p7a2d0b7ef5)">
     <use xlink:href="#mf05476bb33" x="698.904801" y="302.632866" style="fill: #1f77b4; stroke: #000000"/>
     <use xlink:href="#mf05476bb33" x="686.648295" y="279.190449" style="fill: #1f77b4; stroke: #000000"/>
     <use xlink:href="#mf05476bb33" x="670.192862" y="255.748031" style="fill: #1f77b4; stroke: #000000"/>
     <use xlink:href="#mf05476bb33" x="608.277815" y="232.305614" style="fill: #1f77b4; stroke: #000000"/>
     <use xlink:href="#mf05476bb33" x="749.865571" y="208.863196" style="fill: #1f77b4; stroke: #000000"/>
     <use xlink:href="#mf05476bb33" x="757.08702" y="185.420779" style="fill: #1f77b4; stroke: #000000"/>
     <use xlink:href="#mf05476bb33" x="758.448441" y="161.978362" style="fill: #1f77b4; stroke: #000000"/>
     <use xlink:href="#mf05476bb33" x="768.439302" y="138.535944" style="fill: #1f77b4; stroke: #000000"/>
     <use xlink:href="#mf05476bb33" x="762.769472" y="115.093527" style="fill: #1f77b4; stroke: #000000"/>
     <use xlink:href="#mf05476bb33" x="766.379191" y="91.651109" style="fill: #1f77b4; stroke: #000000"/>
     <use xlink:href="#mf05476bb33" x="765.788274" y="68.208692" style="fill: #1f77b4; stroke: #000000"/>
     <use xlink:href="#mf05476bb33" x="769.16223" y="44.766274" style="fill: #1f77b4; stroke: #000000"/>
    </g>
   </g>
   <g id="patch_30">
    <path d="M 600.233594 325.840859 
L 600.233594 21.558281 
" style="fill: none; stroke: #000000; stroke-width: 0.8; stroke-linejoin: miter; stroke-linecap: square"/>
   </g>
   <g id="patch_31">
    <path d="M 600.233594 325.840859 
L 777.206451 325.840859 
" style="fill: none; stroke: #000000; stroke-width: 0.8; stroke-linejoin: miter; stroke-linecap: square"/>
   </g>
   <g id="text_38">
    <!-- Construct-validity gap by category -->
    <g transform="translate(593.478069 15.558281) scale(0.11 -0.11)">
     <use xlink:href="#DejaVuSans-26"/>
     <use xlink:href="#DejaVuSans-52" transform="translate(69.828125 0)"/>
     <use xlink:href="#DejaVuSans-51" transform="translate(131.015625 0)"/>
     <use xlink:href="#DejaVuSans-56" transform="translate(194.390625 0)"/>
     <use xlink:href="#DejaVuSans-57" transform="translate(246.484375 0)"/>
     <use xlink:href="#DejaVuSans-55" transform="translate(285.6875 0)"/>
     <use xlink:href="#DejaVuSans-58" transform="translate(326.796875 0)"/>
     <use xlink:href="#DejaVuSans-46" transform="translate(390.171875 0)"/>
     <use xlink:href="#DejaVuSans-57" transform="translate(445.15625 0)"/>
     <use xlink:href="#DejaVuSans-10" transform="translate(484.359375 0)"/>
     <use xlink:href="#DejaVuSans-59" transform="translate(517.75 0)"/>
     <use xlink:href="#DejaVuSans-44" transform="translate(576.9375 0)"/>
     <use xlink:href="#DejaVuSans-4f" transform="translate(638.21875 0)"/>
     <use xlink:href="#DejaVuSans-4c" transform="translate(666 0)"/>
     <use xlink:href="#DejaVuSans-47" transform="translate(693.78125 0)"/>
     <use xlink:href="#DejaVuSans-4c" transform="translate(757.265625 0)"/>
     <use xlink:href="#DejaVuSans-57" transform="translate(785.046875 0)"/>
     <use xlink:href="#DejaVuSans-5c" transform="translate(824.25 0)"/>
     <use xlink:href="#DejaVuSans-3" transform="translate(883.4375 0)"/>
     <use xlink:href="#DejaVuSans-4a" transform="translate(915.21875 0)"/>
     <use xlink:href="#DejaVuSans-44" transform="translate(978.703125 0)"/>
     <use xlink:href="#DejaVuSans-53" transform="translate(1039.984375 0)"/>
     <use xlink:href="#DejaVuSans-3" transform="translate(1103.46875 0)"/>
     <use xlink:href="#DejaVuSans-45" transform="translate(1135.25 0)"/>
     <use xlink:href="#DejaVuSans-5c" transform="translate(1198.734375 0)"/>
     <use xlink:href="#DejaVuSans-3" transform="translate(1257.921875 0)"/>
     <use xlink:href="#DejaVuSans-46" transform="translate(1289.703125 0)"/>
     <use xlink:href="#DejaVuSans-44" transform="translate(1344.6875 0)"/>
     <use xlink:href="#DejaVuSans-57" transform="translate(1405.96875 0)"/>
     <use xlink:href="#DejaVuSans-48" transform="translate(1445.171875 0)"/>
     <use xlink:href="#DejaVuSans-4a" transform="translate(1506.703125 0)"/>
     <use xlink:href="#DejaVuSans-52" transform="translate(1570.1875 0)"/>
     <use xlink:href="#DejaVuSans-55" transform="translate(1631.375 0)"/>
     <use xlink:href="#DejaVuSans-5c" transform="translate(1672.484375 0)"/>
    </g>
   </g>
  </g>
 </g>
 <defs>
  <clipPath id="p2b252ac7a2">
   <rect x="210.173594" y="21.558281" width="176.972857" height="304.282578"/>
  </clipPath>
  <clipPath id="p7a2d0b7ef5">
   <rect x="600.233594" y="21.558281" width="176.972857" height="304.282578"/>
  </clipPath>
 </defs>
</svg>
